ffmpeg version 4.4.2-0ubuntu0.22.04.1 Copyright (c) 2000-2021 the FFmpeg developers
  built with gcc 11 (Ubuntu 11.2.0-19ubuntu1)
  configuration: --prefix=/usr --extra-version=0ubuntu0.22.04.1 --toolchain=hardened --libdir=/usr/lib/x86_64-linux-gnu --incdir=/usr/include/x86_64-linux-gnu --arch=amd64 --enable-gpl --disable-stripping --enable-gnutls --enable-ladspa --enable-libaom --enable-libass --enable-libbluray --enable-libbs2b --enable-libcaca --enable-libcdio --enable-libcodec2 --enable-libdav1d --enable-libflite --enable-libfontconfig --enable-libfreetype --enable-libfribidi --enable-libgme --enable-libgsm --enable-libjack --enable-libmp3lame --enable-libmysofa --enable-libopenjpeg --enable-libopenmpt --enable-libopus --enable-libpulse --enable-librabbitmq --enable-librubberband --enable-libshine --enable-libsnappy --enable-libsoxr --enable-libspeex --enable-libsrt --enable-libssh --enable-libtheora --enable-libtwolame --enable-libvidstab --enable-libvorbis --enable-libvpx --enable-libwebp --enable-libx265 --enable-libxml2 --enable-libxvid --enable-libzimg --enable-libzmq --enable-libzvbi --enable-lv2 --enable-omx --enable-openal --enable-opencl --enable-opengl --enable-sdl2 --enable-pocketsphinx --enable-librsvg --enable-libmfx --enable-libdc1394 --enable-libdrm --enable-libiec61883 --enable-chromaprint --enable-frei0r --enable-libx264 --enable-shared
  libavutil      56. 70.100 / 56. 70.100
  libavcodec     58.134.100 / 58.134.100
  libavformat    58. 76.100 / 58. 76.100
  libavdevice    58. 13.100 / 58. 13.100
  libavfilter     7.110.100 /  7.110.100
  libswscale      5.  9.100 /  5.  9.100
  libswresample   3.  9.100 /  3.  9.100
  libpostproc    55.  9.100 / 55.  9.100
Input #0, flv, from '/storage/32426326/20250613/32426326-20250613-125421-680.flv':
  Metadata:
    encoder         : obs-output module (libobs version 31.0.2)
    Rawdata         : 
    cdn_ip          : 192.168.252.7
    displayHeight   : 1440
    fps             : 60
    displayWidth    : 2560
    level           : 
    profile         : 
    Title           : 技术主播没有GG
    Artist          : 蓝音BuBuLine (32426326)
    Comment         : mikufans直播间 32426326 的直播录像
                    : 主播名: 蓝音BuBuLine
                    : 直播标题: 技术主播没有GG
                    : 直播分区: 单机游戏·主机游戏
                    : 录制时间: 2025-06-13T12:54:21.6877331+00:00
                    : 直播服务器:
                    : d1--ov-gotcha07b.bilivideo.com [156.59.188.247]
                    : 
                    : 使用 mikufans录播姬 录制 https://rec.danmuji.org
                    : 录播姬版本: 2.11.0
    RecordedBy      : BililiveRecorder mikufans录播姬
    RecordedFrom    : d1--ov-gotcha07b.bilivideo.com
    StreamServers   : d1--ov-gotcha07b.bilivideo.com [156.59.188.247]
    RecorderVersion : 2.11.0+Branch.tags-v2.11.0.Sha.d32ebb97483b1ae77acfc6dbcfef17bd64913ccd
    StartTime       : Fri, 13 Jun 2025 12:54:21 +0000
    RoomId          : 32426326
    ShortId         : 0
    Name            : 蓝音BuBuLine
    StreamTitle     : 技术主播没有GG
    AreaNameParent  : 单机游戏
    AreaNameChild   : 主机游戏
  Duration: 07:30:34.81, start: 0.035000, bitrate: 9222 kb/s
  Stream #0:0: Video: h264 (High), yuv420p(tv, bt709, progressive), 2560x1440 [SAR 1:1 DAR 16:9], 10240 kb/s, 60 fps, 60 tbr, 1k tbn, 120 tbc
  Stream #0:1: Audio: aac (LC), 48000 Hz, stereo, fltp, 196 kb/s
Stream mapping:
  Stream #0:0 -> #0:0 (h264 (native) -> png (native))
Press [q] to stop, [?] for help
Output #0, image2, to '/storage/32426326/20250613/32426326-20250613-125421-680.all.thumb.png':
  Metadata:
    AreaNameChild   : 主机游戏
    Rawdata         : 
    cdn_ip          : 192.168.252.7
    displayHeight   : 1440
    fps             : 60
    displayWidth    : 2560
    level           : 
    profile         : 
    Title           : 技术主播没有GG
    Artist          : 蓝音BuBuLine (32426326)
    Comment         : mikufans直播间 32426326 的直播录像
                    : 主播名: 蓝音BuBuLine
                    : 直播标题: 技术主播没有GG
                    : 直播分区: 单机游戏·主机游戏
                    : 录制时间: 2025-06-13T12:54:21.6877331+00:00
                    : 直播服务器:
                    : d1--ov-gotcha07b.bilivideo.com [156.59.188.247]
                    : 
                    : 使用 mikufans录播姬 录制 https://rec.danmuji.org
                    : 录播姬版本: 2.11.0
    RecordedBy      : BililiveRecorder mikufans录播姬
    RecordedFrom    : d1--ov-gotcha07b.bilivideo.com
    StreamServers   : d1--ov-gotcha07b.bilivideo.com [156.59.188.247]
    RecorderVersion : 2.11.0+Branch.tags-v2.11.0.Sha.d32ebb97483b1ae77acfc6dbcfef17bd64913ccd
    StartTime       : Fri, 13 Jun 2025 12:54:21 +0000
    RoomId          : 32426326
    ShortId         : 0
    Name            : 蓝音BuBuLine
    StreamTitle     : 技术主播没有GG
    AreaNameParent  : 单机游戏
    encoder         : Lavf58.76.100
  Stream #0:0: Video: png, rgb24(pc, gbr/bt709/bt709, progressive), 2560x1440 [SAR 1:1 DAR 16:9], q=2-31, 200 kb/s, 60 fps, 60 tbn
    Metadata:
      encoder         : Lavc58.134.100 png
frame=    1 fps=0.0 q=0.0 size=N/A time=00:00:00.00 bitrate=N/A speed=   0x    frame=    1 fps=0.0 q=-0.0 Lsize=N/A time=00:00:00.01 bitrate=N/A speed=0.0302x    
video:3720kB audio:0kB subtitle:0kB other streams:0kB global headers:0kB muxing overhead: unknown
ffmpeg version 4.4.2-0ubuntu0.22.04.1 Copyright (c) 2000-2021 the FFmpeg developers
  built with gcc 11 (Ubuntu 11.2.0-19ubuntu1)
  configuration: --prefix=/usr --extra-version=0ubuntu0.22.04.1 --toolchain=hardened --libdir=/usr/lib/x86_64-linux-gnu --incdir=/usr/include/x86_64-linux-gnu --arch=amd64 --enable-gpl --disable-stripping --enable-gnutls --enable-ladspa --enable-libaom --enable-libass --enable-libbluray --enable-libbs2b --enable-libcaca --enable-libcdio --enable-libcodec2 --enable-libdav1d --enable-libflite --enable-libfontconfig --enable-libfreetype --enable-libfribidi --enable-libgme --enable-libgsm --enable-libjack --enable-libmp3lame --enable-libmysofa --enable-libopenjpeg --enable-libopenmpt --enable-libopus --enable-libpulse --enable-librabbitmq --enable-librubberband --enable-libshine --enable-libsnappy --enable-libsoxr --enable-libspeex --enable-libsrt --enable-libssh --enable-libtheora --enable-libtwolame --enable-libvidstab --enable-libvorbis --enable-libvpx --enable-libwebp --enable-libx265 --enable-libxml2 --enable-libxvid --enable-libzimg --enable-libzmq --enable-libzvbi --enable-lv2 --enable-omx --enable-openal --enable-opencl --enable-opengl --enable-sdl2 --enable-pocketsphinx --enable-librsvg --enable-libmfx --enable-libdc1394 --enable-libdrm --enable-libiec61883 --enable-chromaprint --enable-frei0r --enable-libx264 --enable-shared
  libavutil      56. 70.100 / 56. 70.100
  libavcodec     58.134.100 / 58.134.100
  libavformat    58. 76.100 / 58. 76.100
  libavdevice    58. 13.100 / 58. 13.100
  libavfilter     7.110.100 /  7.110.100
  libswscale      5.  9.100 /  5.  9.100
  libswresample   3.  9.100 /  3.  9.100
  libpostproc    55.  9.100 / 55.  9.100
[flv @ 0x559108f86fc0] Auto-inserting h264_mp4toannexb bitstream filter
Input #0, concat, from '/storage/32426326/20250613/32426326-20250613-125421-680.all.concat.txt':
  Duration: N/A, start: 0.000000, bitrate: 10436 kb/s
  Stream #0:0: Video: h264 (High), yuv420p(tv, bt709, progressive), 2560x1440 [SAR 1:1 DAR 16:9], 10240 kb/s, 60 fps, 60 tbr, 1k tbn, 120 tbc
  Stream #0:1: Audio: aac (LC), 48000 Hz, stereo, fltp, 196 kb/s
Output #0, flv, to '/storage/32426326/20250613/32426326-20250613-125421-680.all.flv':
  Metadata:
    encoder         : Lavf58.76.100
  Stream #0:0: Video: h264 (High) ([7][0][0][0] / 0x0007), yuv420p(tv, bt709, progressive), 2560x1440 [SAR 1:1 DAR 16:9], q=2-31, 10240 kb/s, 60 fps, 60 tbr, 1k tbn, 1k tbc
  Stream #0:1: Audio: aac (LC) ([10][0][0][0] / 0x000A), 48000 Hz, stereo, fltp, 196 kb/s
Stream mapping:
  Stream #0:0 -> #0:0 (copy)
  Stream #0:1 -> #0:1 (copy)
Press [q] to stop, [?] for help
frame=    1 fps=0.0 q=-1.0 size=       0kB time=00:00:00.00 bitrate=N/A speed=N/A    frame= 4564 fps=0.0 q=-1.0 size=   33536kB time=00:01:16.22 bitrate=3604.0kbits/s speed= 152x    frame= 7334 fps=7326 q=-1.0 size=   72704kB time=00:02:02.38 bitrate=4866.7kbits/s speed= 122x    frame= 9210 fps=6135 q=-1.0 size=  111872kB time=00:02:33.64 bitrate=5964.7kbits/s speed= 102x    frame=11479 fps=5735 q=-1.0 size=  152576kB time=00:03:11.47 bitrate=6527.9kbits/s speed=95.7x    frame=13652 fps=5458 q=-1.0 size=  190720kB time=00:03:47.68 bitrate=6862.2kbits/s speed=  91x    frame=15833 fps=5275 q=-1.0 size=  230400kB time=00:04:24.03 bitrate=7148.6kbits/s speed=  88x    frame=18003 fps=5141 q=-1.0 size=  270592kB time=00:05:00.19 bitrate=7384.1kbits/s speed=85.7x    frame=19708 fps=4924 q=-1.0 size=  306176kB time=00:05:28.61 bitrate=7632.7kbits/s speed=82.1x    frame=21568 fps=4790 q=-1.0 size=  344832kB time=00:05:59.61 bitrate=7855.3kbits/s speed=79.9x    frame=23432 fps=4684 q=-1.0 size=  383232kB time=00:06:30.68 bitrate=8035.8kbits/s speed=78.1x    frame=25208 fps=4581 q=-1.0 size=  420352kB time=00:07:00.28 bitrate=8193.4kbits/s speed=76.4x    frame=27133 fps=4519 q=-1.0 size=  460288kB time=00:07:32.36 bitrate=8335.5kbits/s speed=75.3x    frame=28937 fps=4449 q=-1.0 size=  497920kB time=00:08:02.43 bitrate=8454.9kbits/s speed=74.2x    frame=30596 fps=4368 q=-1.0 size=  532224kB time=00:08:30.08 bitrate=8547.6kbits/s speed=72.8x    frame=32509 fps=4332 q=-1.0 size=  572160kB time=00:09:01.97 bitrate=8648.2kbits/s speed=72.2x    frame=34314 fps=4287 q=-1.0 size=  609536kB time=00:09:32.04 bitrate=8728.9kbits/s speed=71.5x    frame=36253 fps=4263 q=-1.0 size=  649728kB time=00:10:04.37 bitrate=8806.7kbits/s speed=71.1x    frame=38153 fps=4237 q=-1.0 size=  689408kB time=00:10:36.03 bitrate=8879.5kbits/s speed=70.6x    frame=39912 fps=4199 q=-1.0 size=  725760kB time=00:11:05.34 bitrate=8935.8kbits/s speed=  70x    frame=41796 fps=4177 q=-1.0 size=  764928kB time=00:11:36.74 bitrate=8993.6kbits/s speed=69.6x    frame=43648 fps=4154 q=-1.0 size=  803584kB time=00:12:07.62 bitrate=9047.3kbits/s speed=69.3x    frame=45405 fps=4125 q=-1.0 size=  839936kB time=00:12:36.89 bitrate=9090.7kbits/s speed=68.8x    frame=47695 fps=4145 q=-1.0 size=  881408kB time=00:13:15.07 bitrate=9081.5kbits/s speed=69.1x    frame=49559 fps=4127 q=-1.0 size=  919808kB time=00:13:46.13 bitrate=9120.9kbits/s speed=68.8x    frame=51716 fps=4135 q=-1.0 size=  958464kB time=00:14:22.08 bitrate=9107.9kbits/s speed=68.9x    frame=53546 fps=4116 q=-1.0 size=  996352kB time=00:14:52.58 bitrate=9144.4kbits/s speed=68.6x    frame=55459 fps=4105 q=-1.0 size= 1036032kB time=00:15:24.46 bitrate=9180.7kbits/s speed=68.4x    frame=57275 fps=4088 q=-1.0 size= 1073920kB time=00:15:54.73 bitrate=9214.7kbits/s speed=68.1x    frame=59153 fps=4077 q=-1.0 size= 1112832kB time=00:16:26.03 bitrate=9245.5kbits/s speed=  68x    frame=60811 fps=4051 q=-1.0 size= 1147392kB time=00:16:53.66 bitrate=9272.7kbits/s speed=67.5x    frame=62725 fps=4044 q=-1.0 size= 1187072kB time=00:17:25.56 bitrate=9300.7kbits/s speed=67.4x    frame=64604 fps=4035 q=-1.0 size= 1225984kB time=00:17:56.88 bitrate=9326.2kbits/s speed=67.3x    frame=66569 fps=4032 q=-1.0 size= 1266944kB time=00:18:29.63 bitrate=9353.3kbits/s speed=67.2x    frame=68436 fps=4023 q=-1.0 size= 1305856kB time=00:19:00.74 bitrate=9377.7kbits/s speed=67.1x    frame=70212 fps=4010 q=-1.0 size= 1342720kB time=00:19:30.34 bitrate=9398.5kbits/s speed=66.8x    frame=72099 fps=4003 q=-1.0 size= 1381632kB time=00:20:01.79 bitrate=9417.8kbits/s speed=66.7x    frame=74054 fps=4000 q=-1.0 size= 1422592kB time=00:20:34.38 bitrate=9441.1kbits/s speed=66.7x    frame=75799 fps=3987 q=-1.0 size= 1458688kB time=00:21:03.47 bitrate=9457.7kbits/s speed=66.5x    frame=77610 fps=3977 q=-1.0 size= 1496320kB time=00:21:33.64 bitrate=9475.4kbits/s speed=66.3x    frame=79498 fps=3972 q=-1.0 size= 1535744kB time=00:22:05.12 bitrate=9494.1kbits/s speed=66.2x    frame=81329 fps=3965 q=-1.0 size= 1573376kB time=00:22:35.63 bitrate=9507.8kbits/s speed=66.1x    frame=83243 fps=3961 q=-1.0 size= 1612032kB time=00:23:07.54 bitrate=9517.4kbits/s speed=  66x    frame=85243 fps=3962 q=-1.0 size= 1647872kB time=00:23:40.86 bitrate=9500.8kbits/s speed=  66x    frame=87573 fps=3978 q=-1.0 size= 1687040kB time=00:24:19.69 bitrate=9467.9kbits/s speed=66.3x    frame=89410 fps=3971 q=-1.0 size= 1725184kB time=00:24:50.31 bitrate=9483.0kbits/s speed=66.2x    frame=91199 fps=3963 q=-1.0 size= 1762560kB time=00:25:20.13 bitrate=9498.5kbits/s speed=66.1x    frame=93056 fps=3957 q=-1.0 size= 1800704kB time=00:25:51.08 bitrate=9510.3kbits/s speed=  66x    frame=94888 fps=3951 q=-1.0 size= 1838592kB time=00:26:21.61 bitrate=9523.0kbits/s speed=65.9x    frame=96676 fps=3944 q=-1.0 size= 1875712kB time=00:26:51.41 bitrate=9535.6kbits/s speed=65.7x    frame=98455 fps=3936 q=-1.0 size= 1912832kB time=00:27:21.06 bitrate=9548.6kbits/s speed=65.6x    frame=100238 fps=3928 q=-1.0 size= 1949952kB time=00:27:50.78 bitrate=9560.8kbits/s speed=65.5x    frame=102056 fps=3923 q=-1.0 size= 1987584kB time=00:28:21.08 bitrate=9571.7kbits/s speed=65.4x    frame=103970 fps=3921 q=-1.0 size= 2027520kB time=00:28:52.98 bitrate=9584.3kbits/s speed=65.4x    frame=106185 fps=3930 q=-1.0 size= 2067968kB time=00:29:29.89 bitrate=9571.6kbits/s speed=65.5x    frame=108504 fps=3943 q=-1.0 size= 2109184kB time=00:30:08.54 bitrate=9553.8kbits/s speed=65.7x    frame=110240 fps=3935 q=-1.0 size= 2145280kB time=00:30:37.48 bitrate=9564.2kbits/s speed=65.6x    frame=112020 fps=3928 q=-1.0 size= 2182400kB time=00:31:07.14 bitrate=9575.2kbits/s speed=65.5x    frame=113919 fps=3926 q=-1.0 size= 2221568kB time=00:31:38.79 bitrate=9584.5kbits/s speed=65.4x    frame=115640 fps=3917 q=-1.0 size= 2257152kB time=00:32:07.48 bitrate=9593.1kbits/s speed=65.3x    frame=117485 fps=3914 q=-1.0 size= 2295552kB time=00:32:38.23 bitrate=9603.1kbits/s speed=65.2x    frame=119326 fps=3910 q=-1.0 size= 2333952kB time=00:33:08.91 bitrate=9613.2kbits/s speed=65.2x    frame=121047 fps=3902 q=-1.0 size= 2369536kB time=00:33:37.60 bitrate=9620.9kbits/s speed=  65x    frame=122862 fps=3898 q=-1.0 size= 2407936kB time=00:34:07.85 bitrate=9632.4kbits/s speed=  65x    frame=124960 fps=3903 q=-1.0 size= 2445568kB time=00:34:42.81 bitrate=9618.8kbits/s speed=  65x    frame=127255 fps=3913 q=-1.0 size= 2486016kB time=00:35:21.07 bitrate=9601.5kbits/s speed=65.2x    frame=129079 fps=3909 q=-1.0 size= 2523648kB time=00:35:51.46 bitrate=9609.1kbits/s speed=65.2x    frame=130933 fps=3906 q=-1.0 size= 2562304kB time=00:36:22.36 bitrate=9618.2kbits/s speed=65.1x    frame=132771 fps=3903 q=-1.0 size= 2600192kB time=00:36:52.99 bitrate=9625.3kbits/s speed=  65x    frame=134577 fps=3898 q=-1.0 size= 2637568kB time=00:37:23.09 bitrate=9632.6kbits/s speed=  65x    frame=136312 fps=3892 q=-1.0 size= 2673664kB time=00:37:52.02 bitrate=9640.1kbits/s speed=64.9x    frame=138230 fps=3891 q=-1.0 size= 2713600kB time=00:38:23.98 bitrate=9648.4kbits/s speed=64.9x    frame=140027 fps=3887 q=-1.0 size= 2750976kB time=00:38:53.93 bitrate=9655.8kbits/s speed=64.8x    frame=141887 fps=3885 q=-1.0 size= 2789632kB time=00:39:24.93 bitrate=9663.1kbits/s speed=64.8x    frame=143798 fps=3884 q=-1.0 size= 2829312kB time=00:39:56.78 bitrate=9670.4kbits/s speed=64.7x    frame=145507 fps=3878 q=-1.0 size= 2864896kB time=00:40:25.26 bitrate=9677.0kbits/s speed=64.6x    frame=147424 fps=3877 q=-1.0 size= 2904576kB time=00:40:57.22 bitrate=9683.4kbits/s speed=64.6x    frame=149338 fps=3877 q=-1.0 size= 2944512kB time=00:41:29.11 bitrate=9690.8kbits/s speed=64.6x    frame=151428 fps=3881 q=-1.0 size= 2983680kB time=00:42:03.95 bitrate=9684.1kbits/s speed=64.7x    frame=153477 fps=3883 q=-1.0 size= 3024640kB time=00:42:38.09 bitrate=9686.0kbits/s speed=64.7x    frame=155664 fps=3889 q=-1.0 size= 3060992kB time=00:43:14.54 bitrate=9664.7kbits/s speed=64.8x    frame=157443 fps=3885 q=-1.0 size= 3097600kB time=00:43:44.19 bitrate=9669.8kbits/s speed=64.8x    frame=159334 fps=3884 q=-1.0 size= 3137024kB time=00:44:15.71 bitrate=9676.7kbits/s speed=64.7x    frame=161042 fps=3878 q=-1.0 size= 3172608kB time=00:44:44.18 bitrate=9682.7kbits/s speed=64.6x    frame=162900 fps=3876 q=-1.0 size= 3211264kB time=00:45:15.14 bitrate=9688.9kbits/s speed=64.6x    frame=164778 fps=3875 q=-1.0 size= 3250176kB time=00:45:46.45 bitrate=9694.5kbits/s speed=64.6x    frame=166487 fps=3870 q=-1.0 size= 3285760kB time=00:46:14.93 bitrate=9700.0kbits/s speed=64.5x    frame=168401 fps=3869 q=-1.0 size= 3325440kB time=00:46:46.83 bitrate=9705.6kbits/s speed=64.5x    frame=170191 fps=3866 q=-1.0 size= 3362816kB time=00:47:16.67 bitrate=9711.4kbits/s speed=64.4x    frame=171955 fps=3862 q=-1.0 size= 3399424kB time=00:47:46.07 bitrate=9716.5kbits/s speed=64.4x    frame=173829 fps=3861 q=-1.0 size= 3438336kB time=00:48:17.29 bitrate=9721.8kbits/s speed=64.3x    frame=175641 fps=3858 q=-1.0 size= 3475968kB time=00:48:47.49 bitrate=9726.8kbits/s speed=64.3x    frame=177509 fps=3857 q=-1.0 size= 3514880kB time=00:49:18.63 bitrate=9732.1kbits/s speed=64.3x    frame=179375 fps=3855 q=-1.0 size= 3553792kB time=00:49:49.74 bitrate=9737.5kbits/s speed=64.3x    frame=181131 fps=3852 q=-1.0 size= 3589888kB time=00:50:19.01 bitrate=9741.1kbits/s speed=64.2x    frame=182991 fps=3850 q=-1.0 size= 3628800kB time=00:50:49.99 bitrate=9746.6kbits/s speed=64.2x    frame=184812 fps=3848 q=-1.0 size= 3665408kB time=00:51:20.34 bitrate=9747.9kbits/s speed=64.1x    frame=186799 fps=3849 q=-1.0 size= 3702016kB time=00:51:53.46 bitrate=9740.6kbits/s speed=64.2x    frame=189102 fps=3857 q=-1.0 size= 3741696kB time=00:52:31.84 bitrate=9725.1kbits/s speed=64.3x    frame=190840 fps=3853 q=-1.0 size= 3777792kB time=00:53:00.81 bitrate=9729.5kbits/s speed=64.2x    frame=192588 fps=3849 q=-1.0 size= 3813888kB time=00:53:29.94 bitrate=9733.3kbits/s speed=64.2x    frame=194440 fps=3848 q=-1.0 size= 3852544kB time=00:54:00.81 bitrate=9738.3kbits/s speed=64.1x    frame=196132 fps=3843 q=-1.0 size= 3887616kB time=00:54:29.01 bitrate=9742.2kbits/s speed=64.1x    frame=197992 fps=3842 q=-1.0 size= 3926272kB time=00:55:00.01 bitrate=9746.6kbits/s speed=  64x    frame=199861 fps=3841 q=-1.0 size= 3965184kB time=00:55:31.16 bitrate=9751.2kbits/s speed=  64x    frame=201550 fps=3837 q=-1.0 size= 4000256kB time=00:55:59.31 bitrate=9755.0kbits/s speed=63.9x    frame=203352 fps=3834 q=-1.0 size= 4037888kB time=00:56:29.35 bitrate=9759.5kbits/s speed=63.9x    frame=205143 fps=3832 q=-1.0 size= 4075008kB time=00:56:59.20 bitrate=9763.2kbits/s speed=63.9x    frame=206899 fps=3829 q=-1.0 size= 4111360kB time=00:57:28.47 bitrate=9766.7kbits/s speed=63.8x    frame=208788 fps=3829 q=-1.0 size= 4150784kB time=00:57:59.96 bitrate=9771.2kbits/s speed=63.8x    frame=210456 fps=3824 q=-1.0 size= 4185344kB time=00:58:27.74 bitrate=9774.5kbits/s speed=63.7x    frame=212347 fps=3824 q=-1.0 size= 4224768kB time=00:58:59.26 bitrate=9778.7kbits/s speed=63.7x    frame=214173 fps=3822 q=-1.0 size= 4262656kB time=00:59:29.71 bitrate=9782.2kbits/s speed=63.7x    frame=215854 fps=3818 q=-1.0 size= 4297472kB time=00:59:57.72 bitrate=9785.3kbits/s speed=63.6x    frame=217669 fps=3816 q=-1.0 size= 4335104kB time=01:00:27.97 bitrate=9788.7kbits/s speed=63.6x    frame=219517 fps=3815 q=-1.0 size= 4373504kB time=01:00:58.77 bitrate=9792.3kbits/s speed=63.6x    frame=221649 fps=3819 q=-1.0 size= 4413184kB time=01:01:34.29 bitrate=9786.1kbits/s speed=63.7x    frame=223612 fps=3820 q=-1.0 size= 4450048kB time=01:02:07.02 bitrate=9781.2kbits/s speed=63.7x    frame=225820 fps=3825 q=-1.0 size= 4486912kB time=01:02:43.81 bitrate=9765.8kbits/s speed=63.8x    frame=227648 fps=3824 q=-1.0 size= 4524032kB time=01:03:14.28 bitrate=9767.5kbits/s speed=63.7x    frame=229408 fps=3821 q=-1.0 size= 4560384kB time=01:03:43.61 bitrate=9770.5kbits/s speed=63.7x    frame=231285 fps=3820 q=-1.0 size= 4599552kB time=01:04:14.89 bitrate=9774.5kbits/s speed=63.7x    frame=233042 fps=3818 q=-1.0 size= 4635904kB time=01:04:44.18 bitrate=9777.4kbits/s speed=63.6x    frame=234867 fps=3816 q=-1.0 size= 4673792kB time=01:05:14.60 bitrate=9780.7kbits/s speed=63.6x    frame=236724 fps=3816 q=-1.0 size= 4712448kB time=01:05:45.56 bitrate=9784.3kbits/s speed=63.6x    frame=238614 fps=3815 q=-1.0 size= 4751616kB time=01:06:17.04 bitrate=9787.5kbits/s speed=63.6x    frame=240542 fps=3816 q=-1.0 size= 4791808kB time=01:06:49.18 bitrate=9791.2kbits/s speed=63.6x    frame=242383 fps=3815 q=-1.0 size= 4830208kB time=01:07:19.86 bitrate=9794.7kbits/s speed=63.6x    frame=244276 fps=3814 q=-1.0 size= 4869376kB time=01:07:51.41 bitrate=9797.6kbits/s speed=63.6x    frame=246108 fps=3813 q=-1.0 size= 4907520kB time=01:08:21.94 bitrate=9800.8kbits/s speed=63.6x    frame=248032 fps=3813 q=-1.0 size= 4947712kB time=01:08:54.01 bitrate=9804.4kbits/s speed=63.6x    frame=249948 fps=3813 q=-1.0 size= 4987392kB time=01:09:25.95 bitrate=9807.3kbits/s speed=63.6x    frame=251800 fps=3813 q=-1.0 size= 5025792kB time=01:09:56.81 bitrate=9810.1kbits/s speed=63.5x    frame=253711 fps=3813 q=-1.0 size= 5065216kB time=01:10:28.66 bitrate=9812.6kbits/s speed=63.5x    frame=255496 fps=3811 q=-1.0 size= 5102592kB time=01:10:58.41 bitrate=9816.0kbits/s speed=63.5x    frame=257357 fps=3810 q=-1.0 size= 5141248kB time=01:11:29.43 bitrate=9818.8kbits/s speed=63.5x    frame=259551 fps=3814 q=-1.0 size= 5180672kB time=01:12:05.99 bitrate=9810.5kbits/s speed=63.6x    frame=261543 fps=3816 q=-1.0 size= 5220864kB time=01:12:39.19 bitrate=9811.3kbits/s speed=63.6x    frame=263793 fps=3821 q=-1.0 size= 5259776kB time=01:13:16.69 bitrate=9800.1kbits/s speed=63.7x    frame=265677 fps=3820 q=-1.0 size= 5298688kB time=01:13:48.09 bitrate=9802.6kbits/s speed=63.7x    frame=267352 fps=3817 q=-1.0 size= 5333760kB time=01:14:16.02 bitrate=9805.6kbits/s speed=63.6x    frame=269219 fps=3816 q=-1.0 size= 5372416kB time=01:14:47.13 bitrate=9808.2kbits/s speed=63.6x    frame=271031 fps=3815 q=-1.0 size= 5410304kB time=01:15:17.33 bitrate=9811.4kbits/s speed=63.6x    frame=272708 fps=3812 q=-1.0 size= 5445120kB time=01:15:45.28 bitrate=9813.8kbits/s speed=63.5x    frame=274536 fps=3811 q=-1.0 size= 5483008kB time=01:16:15.74 bitrate=9816.3kbits/s speed=63.5x    frame=276316 fps=3809 q=-1.0 size= 5519872kB time=01:16:45.42 bitrate=9818.6kbits/s speed=63.5x    frame=278006 fps=3806 q=-1.0 size= 5554944kB time=01:17:13.58 bitrate=9820.9kbits/s speed=63.4x    frame=279841 fps=3805 q=-1.0 size= 5593344kB time=01:17:44.17 bitrate=9824.0kbits/s speed=63.4x    frame=281508 fps=3802 q=-1.0 size= 5627904kB time=01:18:11.94 bitrate=9826.2kbits/s speed=63.4x    frame=283245 fps=3800 q=-1.0 size= 5664256kB time=01:18:40.89 bitrate=9829.0kbits/s speed=63.3x    frame=285088 fps=3799 q=-1.0 size= 5702400kB time=01:19:11.62 bitrate=9831.2kbits/s speed=63.3x    frame=286811 fps=3796 q=-1.0 size= 5737984kB time=01:19:40.33 bitrate=9833.1kbits/s speed=63.3x    frame=288657 fps=3796 q=-1.0 size= 5776384kB time=01:20:11.09 bitrate=9835.6kbits/s speed=63.3x    frame=290468 fps=3795 q=-1.0 size= 5814016kB time=01:20:41.28 bitrate=9838.0kbits/s speed=63.2x    frame=292314 fps=3794 q=-1.0 size= 5852416kB time=01:21:12.04 bitrate=9840.4kbits/s speed=63.2x    frame=294194 fps=3794 q=-1.0 size= 5891328kB time=01:21:43.38 bitrate=9842.5kbits/s speed=63.2x    frame=296385 fps=3797 q=-1.0 size= 5930496kB time=01:22:19.89 bitrate=9834.7kbits/s speed=63.3x    frame=298912 fps=3805 q=-1.0 size= 5972480kB time=01:23:02.01 bitrate=9820.6kbits/s speed=63.4x    frame=300799 fps=3805 q=-1.0 size= 6011648kB time=01:23:33.46 bitrate=9823.0kbits/s speed=63.4x    frame=302546 fps=3803 q=-1.0 size= 6048000kB time=01:24:02.58 bitrate=9825.4kbits/s speed=63.4x    frame=304411 fps=3803 q=-1.0 size= 6086912kB time=01:24:33.66 bitrate=9828.0kbits/s speed=63.4x    frame=306269 fps=3802 q=-1.0 size= 6125312kB time=01:25:04.64 bitrate=9830.0kbits/s speed=63.4x    frame=308051 fps=3801 q=-1.0 size= 6162432kB time=01:25:34.34 bitrate=9832.4kbits/s speed=63.3x    frame=310040 fps=3802 q=-1.0 size= 6203648kB time=01:26:07.49 bitrate=9834.6kbits/s speed=63.4x    frame=311834 fps=3800 q=-1.0 size= 6241024kB time=01:26:37.38 bitrate=9837.0kbits/s speed=63.3x    frame=313780 fps=3801 q=-1.0 size= 6281472kB time=01:27:09.81 bitrate=9839.3kbits/s speed=63.4x    frame=315667 fps=3801 q=-1.0 size= 6320896kB time=01:27:41.26 bitrate=9841.9kbits/s speed=63.3x    frame=317436 fps=3799 q=-1.0 size= 6357504kB time=01:28:10.74 bitrate=9843.7kbits/s speed=63.3x    frame=319310 fps=3799 q=-1.0 size= 6396672kB time=01:28:41.98 bitrate=9846.2kbits/s speed=63.3x    frame=321421 fps=3801 q=-1.0 size= 6435840kB time=01:29:17.16 bitrate=9841.5kbits/s speed=63.4x    frame=323355 fps=3802 q=-1.0 size= 6474752kB time=01:29:49.39 bitrate=9841.8kbits/s speed=63.4x    frame=325720 fps=3807 q=-1.0 size= 6515456kB time=01:30:28.82 bitrate=9831.7kbits/s speed=63.5x    frame=327588 fps=3807 q=-1.0 size= 6554112kB time=01:30:59.95 bitrate=9833.7kbits/s speed=63.4x    frame=329472 fps=3806 q=-1.0 size= 6593536kB time=01:31:31.35 bitrate=9836.2kbits/s speed=63.4x    frame=331397 fps=3807 q=-1.0 size= 6633472kB time=01:32:03.43 bitrate=9838.3kbits/s speed=63.4x    frame=333242 fps=3806 q=-1.0 size= 6671616kB time=01:32:34.18 bitrate=9840.1kbits/s speed=63.4x    frame=335163 fps=3806 q=-1.0 size= 6711552kB time=01:33:06.19 bitrate=9842.3kbits/s speed=63.4x    frame=337019 fps=3806 q=-1.0 size= 6750208kB time=01:33:37.13 bitrate=9844.5kbits/s speed=63.4x    frame=338787 fps=3804 q=-1.0 size= 6787072kB time=01:34:06.59 bitrate=9846.6kbits/s speed=63.4x    frame=340745 fps=3805 q=-1.0 size= 6827520kB time=01:34:39.23 bitrate=9848.3kbits/s speed=63.4x    frame=342673 fps=3805 q=-1.0 size= 6867456kB time=01:35:11.36 bitrate=9850.2kbits/s speed=63.4x    frame=344626 fps=3805 q=-1.0 size= 6908160kB time=01:35:43.91 bitrate=9852.5kbits/s speed=63.4x    frame=346569 fps=3806 q=-1.0 size= 6948352kB time=01:36:16.30 bitrate=9854.2kbits/s speed=63.4x    frame=348787 fps=3809 q=-1.0 size= 6988544kB time=01:36:53.26 bitrate=9848.2kbits/s speed=63.5x    frame=351264 fps=3815 q=-1.0 size= 7029248kB time=01:37:34.55 bitrate=9835.7kbits/s speed=63.6x    frame=353224 fps=3816 q=-1.0 size= 7069696kB time=01:38:07.21 bitrate=9837.4kbits/s speed=63.6x    frame=355123 fps=3816 q=-1.0 size= 7109120kB time=01:38:38.86 bitrate=9839.4kbits/s speed=63.6x    frame=357366 fps=3820 q=-1.0 size= 7150080kB time=01:39:16.24 bitrate=9834.0kbits/s speed=63.7x    frame=359421 fps=3821 q=-1.0 size= 7192832kB time=01:39:50.49 bitrate=9836.2kbits/s speed=63.7x    frame=362041 fps=3828 q=-1.0 size= 7235584kB time=01:40:34.16 bitrate=9823.1kbits/s speed=63.8x    frame=364011 fps=3829 q=-1.0 size= 7276544kB time=01:41:06.99 bitrate=9825.2kbits/s speed=63.8x    frame=365894 fps=3829 q=-1.0 size= 7315712kB time=01:41:38.39 bitrate=9827.2kbits/s speed=63.8x    frame=367876 fps=3829 q=-1.0 size= 7356928kB time=01:42:11.41 bitrate=9829.4kbits/s speed=63.8x    frame=369666 fps=3828 q=-1.0 size= 7394048kB time=01:42:41.24 bitrate=9831.1kbits/s speed=63.8x    frame=371558 fps=3828 q=-1.0 size= 7432960kB time=01:43:12.79 bitrate=9832.5kbits/s speed=63.8x    frame=373912 fps=3832 q=-1.0 size= 7470336kB time=01:43:52.01 bitrate=9819.8kbits/s speed=63.9x    frame=376191 fps=3836 q=-1.0 size= 7509504kB time=01:44:29.99 bitrate=9811.5kbits/s speed=63.9x    frame=377864 fps=3834 q=-1.0 size= 7544320kB time=01:44:57.88 bitrate=9813.3kbits/s speed=63.9x    frame=379541 fps=3831 q=-1.0 size= 7579136kB time=01:45:25.83 bitrate=9815.0kbits/s speed=63.9x    frame=381193 fps=3828 q=-1.0 size= 7613440kB time=01:45:53.36 bitrate=9816.7kbits/s speed=63.8x    frame=382853 fps=3826 q=-1.0 size= 7648000kB time=01:46:21.03 bitrate=9818.5kbits/s speed=63.8x    frame=384488 fps=3823 q=-1.0 size= 7681792kB time=01:46:48.28 bitrate=9820.0kbits/s speed=63.7x    frame=386125 fps=3820 q=-1.0 size= 7716096kB time=01:47:15.56 bitrate=9822.0kbits/s speed=63.7x    frame=387806 fps=3818 q=-1.0 size= 7750912kB time=01:47:43.58 bitrate=9823.6kbits/s speed=63.6x    frame=389467 fps=3816 q=-1.0 size= 7785472kB time=01:48:11.26 bitrate=9825.3kbits/s speed=63.6x    frame=391111 fps=3813 q=-1.0 size= 7819776kB time=01:48:38.66 bitrate=9827.1kbits/s speed=63.6x    frame=392858 fps=3812 q=-1.0 size= 7855616kB time=01:49:07.78 bitrate=9828.2kbits/s speed=63.5x    frame=394568 fps=3810 q=-1.0 size= 7891200kB time=01:49:36.28 bitrate=9830.0kbits/s speed=63.5x    frame=396357 fps=3809 q=-1.0 size= 7928576kB time=01:50:06.10 bitrate=9832.0kbits/s speed=63.5x    frame=398186 fps=3808 q=-1.0 size= 7966720kB time=01:50:36.59 bitrate=9833.9kbits/s speed=63.5x    frame=400306 fps=3810 q=-1.0 size= 8003072kB time=01:51:11.91 bitrate=9826.4kbits/s speed=63.5x    frame=402739 fps=3815 q=-1.0 size= 8043520kB time=01:51:52.46 bitrate=9816.4kbits/s speed=63.6x    frame=404570 fps=3814 q=-1.0 size= 8080896kB time=01:52:22.98 bitrate=9817.4kbits/s speed=63.6x    frame=406348 fps=3813 q=-1.0 size= 8118016kB time=01:52:52.61 bitrate=9819.4kbits/s speed=63.5x    frame=408192 fps=3812 q=-1.0 size= 8156416kB time=01:53:23.34 bitrate=9821.2kbits/s speed=63.5x    frame=409917 fps=3811 q=-1.0 size= 8192000kB time=01:53:52.11 bitrate=9822.6kbits/s speed=63.5x    frame=411669 fps=3809 q=-1.0 size= 8228608kB time=01:54:21.29 bitrate=9824.5kbits/s speed=63.5x    frame=413453 fps=3808 q=-1.0 size= 8265728kB time=01:54:51.03 bitrate=9826.2kbits/s speed=63.5x    frame=415070 fps=3805 q=-1.0 size= 8299264kB time=01:55:17.98 bitrate=9827.7kbits/s speed=63.4x    frame=416788 fps=3804 q=-1.0 size= 8334848kB time=01:55:46.62 bitrate=9829.1kbits/s speed=63.4x    frame=418504 fps=3802 q=-1.0 size= 8370432kB time=01:56:15.21 bitrate=9830.6kbits/s speed=63.4x    frame=420134 fps=3799 q=-1.0 size= 8404480kB time=01:56:42.38 bitrate=9832.3kbits/s speed=63.3x    frame=421899 fps=3798 q=-1.0 size= 8441088kB time=01:57:11.81 bitrate=9833.8kbits/s speed=63.3x    frame=423595 fps=3796 q=-1.0 size= 8476416kB time=01:57:40.07 bitrate=9835.4kbits/s speed=63.3x    frame=425352 fps=3795 q=-1.0 size= 8512768kB time=01:58:09.34 bitrate=9836.8kbits/s speed=63.3x    frame=427098 fps=3794 q=-1.0 size= 8549120kB time=01:58:38.44 bitrate=9838.4kbits/s speed=63.2x    frame=428766 fps=3792 q=-1.0 size= 8583936kB time=01:59:06.24 bitrate=9840.1kbits/s speed=63.2x    frame=430939 fps=3794 q=-1.0 size= 8620544kB time=01:59:42.46 bitrate=9832.2kbits/s speed=63.2x    frame=432701 fps=3793 q=-1.0 size= 8656896kB time=02:00:11.83 bitrate=9833.5kbits/s speed=63.2x    frame=434319 fps=3791 q=-1.0 size= 8690432kB time=02:00:38.80 bitrate=9834.8kbits/s speed=63.2x    frame=436192 fps=3790 q=-1.0 size= 8729344kB time=02:01:10.02 bitrate=9836.4kbits/s speed=63.2x    frame=437866 fps=3788 q=-1.0 size= 8764160kB time=02:01:37.92 bitrate=9837.9kbits/s speed=63.1x    frame=439476 fps=3786 q=-1.0 size= 8797696kB time=02:02:04.74 bitrate=9839.3kbits/s speed=63.1x    frame=441233 fps=3785 q=-1.0 size= 8834560kB time=02:02:34.03 bitrate=9841.2kbits/s speed=63.1x    frame=442882 fps=3783 q=-1.0 size= 8868608kB time=02:03:01.51 bitrate=9842.4kbits/s speed=  63x    frame=444553 fps=3781 q=-1.0 size= 8903168kB time=02:03:29.36 bitrate=9843.6kbits/s speed=  63x    frame=446376 fps=3780 q=-1.0 size= 8941312kB time=02:03:59.74 bitrate=9845.4kbits/s speed=  63x    frame=447978 fps=3778 q=-1.0 size= 8974336kB time=02:04:26.45 bitrate=9846.4kbits/s speed=  63x    frame=449792 fps=3777 q=-1.0 size= 9012224kB time=02:04:56.68 bitrate=9848.1kbits/s speed=  63x    frame=451567 fps=3776 q=-1.0 size= 9049088kB time=02:05:26.26 bitrate=9849.5kbits/s speed=62.9x    frame=453222 fps=3774 q=-1.0 size= 9083392kB time=02:05:53.86 bitrate=9850.7kbits/s speed=62.9x    frame=454921 fps=3773 q=-1.0 size= 9118720kB time=02:06:22.16 bitrate=9852.1kbits/s speed=62.9x    frame=456606 fps=3771 q=-1.0 size= 9153792kB time=02:06:50.24 bitrate=9853.5kbits/s speed=62.9x    frame=458308 fps=3770 q=-1.0 size= 9189120kB time=02:07:18.61 bitrate=9854.8kbits/s speed=62.8x    frame=460036 fps=3768 q=-1.0 size= 9224960kB time=02:07:47.41 bitrate=9856.1kbits/s speed=62.8x    frame=461679 fps=3766 q=-1.0 size= 9259264kB time=02:08:14.79 bitrate=9857.6kbits/s speed=62.8x    frame=463406 fps=3765 q=-1.0 size= 9295104kB time=02:08:43.58 bitrate=9858.8kbits/s speed=62.8x    frame=465176 fps=3764 q=-1.0 size= 9331968kB time=02:09:13.08 bitrate=9860.3kbits/s speed=62.7x    frame=466986 fps=3763 q=-1.0 size= 9367552kB time=02:09:43.25 bitrate=9859.5kbits/s speed=62.7x    frame=468869 fps=3763 q=-1.0 size= 9406464kB time=02:10:14.63 bitrate=9860.7kbits/s speed=62.7x    frame=470982 fps=3765 q=-1.0 size= 9443328kB time=02:10:49.86 bitrate=9854.9kbits/s speed=62.8x    frame=472815 fps=3765 q=-1.0 size= 9480960kB time=02:11:20.40 bitrate=9855.8kbits/s speed=62.7x    frame=474581 fps=3764 q=-1.0 size= 9517824kB time=02:11:49.83 bitrate=9857.4kbits/s speed=62.7x    frame=476209 fps=3762 q=-1.0 size= 9551616kB time=02:12:16.96 bitrate=9858.5kbits/s speed=62.7x    frame=478047 fps=3762 q=-1.0 size= 9589760kB time=02:12:47.59 bitrate=9859.8kbits/s speed=62.7x    frame=479904 fps=3761 q=-1.0 size= 9628416kB time=02:13:18.55 bitrate=9861.3kbits/s speed=62.7x    frame=481655 fps=3760 q=-1.0 size= 9664768kB time=02:13:47.73 bitrate=9862.5kbits/s speed=62.7x    frame=483515 fps=3760 q=-1.0 size= 9703424kB time=02:14:18.73 bitrate=9863.9kbits/s speed=62.7x    frame=485285 fps=3759 q=-1.0 size= 9740288kB time=02:14:48.23 bitrate=9865.3kbits/s speed=62.7x    frame=486999 fps=3758 q=-1.0 size= 9775616kB time=02:15:16.79 bitrate=9866.2kbits/s speed=62.6x    frame=488774 fps=3757 q=-1.0 size= 9812736kB time=02:15:46.39 bitrate=9867.7kbits/s speed=62.6x    frame=490362 fps=3755 q=-1.0 size= 9845760kB time=02:16:12.84 bitrate=9868.8kbits/s speed=62.6x    frame=491989 fps=3753 q=-1.0 size= 9879552kB time=02:16:39.96 bitrate=9870.0kbits/s speed=62.6x    frame=493701 fps=3752 q=-1.0 size= 9915136kB time=02:17:08.49 bitrate=9871.2kbits/s speed=62.5x    frame=495488 fps=3751 q=-1.0 size= 9952256kB time=02:17:38.28 bitrate=9872.4kbits/s speed=62.5x    frame=497229 fps=3750 q=-1.0 size= 9988352kB time=02:18:07.29 bitrate=9873.5kbits/s speed=62.5x    frame=499041 fps=3750 q=-1.0 size=10026240kB time=02:18:37.49 bitrate=9875.0kbits/s speed=62.5x    frame=500854 fps=3749 q=-1.0 size=10063872kB time=02:19:07.71 bitrate=9876.1kbits/s speed=62.5x    frame=502811 fps=3750 q=-1.0 size=10098688kB time=02:19:40.33 bitrate=9871.7kbits/s speed=62.5x    frame=504774 fps=3750 q=-1.0 size=10137600kB time=02:20:13.04 bitrate=9871.2kbits/s speed=62.5x    frame=506994 fps=3753 q=-1.0 size=10175744kB time=02:20:50.04 bitrate=9865.0kbits/s speed=62.6x    frame=508605 fps=3751 q=-1.0 size=10209280kB time=02:21:16.91 bitrate=9866.1kbits/s speed=62.5x    frame=510422 fps=3751 q=-1.0 size=10246912kB time=02:21:47.18 bitrate=9867.3kbits/s speed=62.5x    frame=512146 fps=3749 q=-1.0 size=10282752kB time=02:22:15.91 bitrate=9868.5kbits/s speed=62.5x    frame=513865 fps=3748 q=-1.0 size=10318592kB time=02:22:44.56 bitrate=9869.7kbits/s speed=62.5x    frame=515716 fps=3748 q=-1.0 size=10356992kB time=02:23:15.41 bitrate=9870.9kbits/s speed=62.5x    frame=517487 fps=3747 q=-1.0 size=10393600kB time=02:23:44.94 bitrate=9871.9kbits/s speed=62.5x    frame=519352 fps=3747 q=-1.0 size=10432512kB time=02:24:16.01 bitrate=9873.3kbits/s speed=62.5x    frame=521327 fps=3748 q=-1.0 size=10473472kB time=02:24:48.94 bitrate=9874.5kbits/s speed=62.5x    frame=523156 fps=3748 q=-1.0 size=10511616kB time=02:25:19.42 bitrate=9875.8kbits/s speed=62.5x    frame=525106 fps=3748 q=-1.0 size=10552320kB time=02:25:51.91 bitrate=9877.2kbits/s speed=62.5x    frame=526976 fps=3748 q=-1.0 size=10590976kB time=02:26:23.08 bitrate=9878.2kbits/s speed=62.5x    frame=528903 fps=3749 q=-1.0 size=10630912kB time=02:26:55.19 bitrate=9879.4kbits/s speed=62.5x    frame=530825 fps=3749 q=-1.0 size=10670848kB time=02:27:27.23 bitrate=9880.6kbits/s speed=62.5x    frame=532544 fps=3748 q=-1.0 size=10706688kB time=02:27:55.88 bitrate=9881.7kbits/s speed=62.5x    frame=534344 fps=3747 q=-1.0 size=10743808kB time=02:28:25.88 bitrate=9882.6kbits/s speed=62.5x    frame=536387 fps=3748 q=-1.0 size=10782464kB time=02:28:59.93 bitrate=9880.4kbits/s speed=62.5x    frame=538294 fps=3749 q=-1.0 size=10821120kB time=02:29:31.71 bitrate=9880.7kbits/s speed=62.5x    frame=540396 fps=3750 q=-1.0 size=10859776kB time=02:30:06.74 bitrate=9877.4kbits/s speed=62.5x    frame=542291 fps=3750 q=-1.0 size=10898944kB time=02:30:38.34 bitrate=9878.4kbits/s speed=62.5x    frame=544087 fps=3750 q=-1.0 size=10936320kB time=02:31:08.27 bitrate=9879.5kbits/s speed=62.5x    frame=546049 fps=3750 q=-1.0 size=10977024kB time=02:31:40.97 bitrate=9880.7kbits/s speed=62.5x    frame=547803 fps=3750 q=-1.0 size=11013632kB time=02:32:10.19 bitrate=9881.9kbits/s speed=62.5x    frame=549670 fps=3749 q=-1.0 size=11052288kB time=02:32:41.32 bitrate=9882.9kbits/s speed=62.5x    frame=551541 fps=3749 q=-1.0 size=11091200kB time=02:33:12.49 bitrate=9884.1kbits/s speed=62.5x    frame=553422 fps=3749 q=-1.0 size=11130368kB time=02:33:43.84 bitrate=9885.2kbits/s speed=62.5x    frame=555310 fps=3750 q=-1.0 size=11169792kB time=02:34:15.31 bitrate=9886.5kbits/s speed=62.5x    frame=557426 fps=3751 q=-1.0 size=11209472kB time=02:34:50.58 bitrate=9884.0kbits/s speed=62.5x    frame=559424 fps=3752 q=-1.0 size=11251200kB time=02:35:23.88 bitrate=9885.4kbits/s speed=62.5x    frame=561896 fps=3756 q=-1.0 size=11291392kB time=02:36:05.08 bitrate=9877.0kbits/s speed=62.6x    frame=563811 fps=3756 q=-1.0 size=11330816kB time=02:36:36.99 bitrate=9877.8kbits/s speed=62.6x    frame=565738 fps=3756 q=-1.0 size=11371008kB time=02:37:09.12 bitrate=9879.1kbits/s speed=62.6x    frame=567676 fps=3757 q=-1.0 size=11411456kB time=02:37:41.42 bitrate=9880.4kbits/s speed=62.6x    frame=569376 fps=3756 q=-1.0 size=11446784kB time=02:38:09.74 bitrate=9881.4kbits/s speed=62.6x    frame=571314 fps=3756 q=-1.0 size=11486976kB time=02:38:42.04 bitrate=9882.5kbits/s speed=62.6x    frame=573197 fps=3756 q=-1.0 size=11526144kB time=02:39:13.43 bitrate=9883.6kbits/s speed=62.6x    frame=575069 fps=3756 q=-1.0 size=11565056kB time=02:39:44.64 bitrate=9884.7kbits/s speed=62.6x    frame=576999 fps=3756 q=-1.0 size=11605248kB time=02:40:16.79 bitrate=9885.8kbits/s speed=62.6x    frame=578776 fps=3756 q=-1.0 size=11642112kB time=02:40:46.41 bitrate=9886.8kbits/s speed=62.6x    frame=580667 fps=3756 q=-1.0 size=11681536kB time=02:41:17.93 bitrate=9888.0kbits/s speed=62.6x    frame=582619 fps=3756 q=-1.0 size=11721984kB time=02:41:50.46 bitrate=9889.0kbits/s speed=62.6x    frame=584393 fps=3756 q=-1.0 size=11758848kB time=02:42:20.03 bitrate=9890.0kbits/s speed=62.6x    frame=586337 fps=3756 q=-1.0 size=11799040kB time=02:42:52.43 bitrate=9890.9kbits/s speed=62.6x    frame=588177 fps=3756 q=-1.0 size=11837184kB time=02:43:23.09 bitrate=9891.8kbits/s speed=62.6x    frame=590105 fps=3756 q=-1.0 size=11877120kB time=02:43:55.23 bitrate=9892.7kbits/s speed=62.6x    frame=592072 fps=3757 q=-1.0 size=11918080kB time=02:44:28.01 bitrate=9893.9kbits/s speed=62.6x    frame=593884 fps=3756 q=-1.0 size=11955712kB time=02:44:58.22 bitrate=9894.8kbits/s speed=62.6x    frame=595802 fps=3756 q=-1.0 size=11994368kB time=02:45:30.18 bitrate=9894.9kbits/s speed=62.6x    frame=598040 fps=3759 q=-1.0 size=12035584kB time=02:46:07.49 bitrate=9891.7kbits/s speed=62.6x    frame=599855 fps=3758 q=-1.0 size=12072192kB time=02:46:37.74 bitrate=9891.8kbits/s speed=62.6x    frame=602138 fps=3761 q=-1.0 size=12112384kB time=02:47:15.78 bitrate=9887.1kbits/s speed=62.7x    frame=604100 fps=3761 q=-1.0 size=12153344kB time=02:47:48.48 bitrate=9888.3kbits/s speed=62.7x    frame=605774 fps=3760 q=-1.0 size=12188416kB time=02:48:16.38 bitrate=9889.4kbits/s speed=62.7x    frame=607773 fps=3761 q=-1.0 size=12229632kB time=02:48:49.69 bitrate=9890.2kbits/s speed=62.7x    frame=609605 fps=3760 q=-1.0 size=12267776kB time=02:49:20.23 bitrate=9891.3kbits/s speed=62.7x    frame=611530 fps=3761 q=-1.0 size=12307712kB time=02:49:52.32 bitrate=9892.2kbits/s speed=62.7x    frame=613448 fps=3761 q=-1.0 size=12347392kB time=02:50:24.28 bitrate=9893.1kbits/s speed=62.7x    frame=615636 fps=3763 q=-1.0 size=12385536kB time=02:51:00.74 bitrate=9888.4kbits/s speed=62.7x    frame=617791 fps=3764 q=-1.0 size=12428032kB time=02:51:36.66 bitrate=9887.7kbits/s speed=62.7x    frame=620104 fps=3767 q=-1.0 size=12470272kB time=02:52:15.21 bitrate=9884.3kbits/s speed=62.8x    frame=621780 fps=3766 q=-1.0 size=12504832kB time=02:52:43.14 bitrate=9885.0kbits/s speed=62.8x    frame=623708 fps=3766 q=-1.0 size=12545024kB time=02:53:15.28 bitrate=9886.1kbits/s speed=62.8x    frame=625560 fps=3766 q=-1.0 size=12583424kB time=02:53:46.15 bitrate=9887.0kbits/s speed=62.8x    frame=627314 fps=3765 q=-1.0 size=12620032kB time=02:54:15.38 bitrate=9888.0kbits/s speed=62.8x    frame=629207 fps=3765 q=-1.0 size=12659456kB time=02:54:46.93 bitrate=9889.1kbits/s speed=62.8x    frame=630950 fps=3764 q=-1.0 size=12695552kB time=02:55:15.99 bitrate=9889.9kbits/s speed=62.7x    frame=632732 fps=3764 q=-1.0 size=12732672kB time=02:55:45.68 bitrate=9890.9kbits/s speed=62.7x    frame=634579 fps=3763 q=-1.0 size=12771072kB time=02:56:16.47 bitrate=9891.8kbits/s speed=62.7x    frame=636315 fps=3763 q=-1.0 size=12807168kB time=02:56:45.39 bitrate=9892.7kbits/s speed=62.7x    frame=638148 fps=3762 q=-1.0 size=12845312kB time=02:57:15.94 bitrate=9893.7kbits/s speed=62.7x    frame=640018 fps=3762 q=-1.0 size=12883968kB time=02:57:47.11 bitrate=9894.5kbits/s speed=62.7x    frame=641745 fps=3761 q=-1.0 size=12919808kB time=02:58:15.89 bitrate=9895.3kbits/s speed=62.7x    frame=643672 fps=3762 q=-1.0 size=12959744kB time=02:58:48.01 bitrate=9896.2kbits/s speed=62.7x    frame=645691 fps=3762 q=-1.0 size=12997376kB time=02:59:21.66 bitrate=9893.9kbits/s speed=62.7x    frame=647534 fps=3762 q=-1.0 size=13035264kB time=02:59:52.38 bitrate=9894.5kbits/s speed=62.7x    frame=649874 fps=3765 q=-1.0 size=13075200kB time=03:00:31.38 bitrate=9889.0kbits/s speed=62.7x    frame=651531 fps=3764 q=-1.0 size=13109504kB time=03:00:59.01 bitrate=9889.8kbits/s speed=62.7x    frame=653389 fps=3763 q=-1.0 size=13148160kB time=03:01:29.96 bitrate=9890.7kbits/s speed=62.7x    frame=655238 fps=3763 q=-1.0 size=13186560kB time=03:02:00.78 bitrate=9891.6kbits/s speed=62.7x    frame=656964 fps=3762 q=-1.0 size=13222400kB time=03:02:29.55 bitrate=9892.5kbits/s speed=62.7x    frame=658840 fps=3762 q=-1.0 size=13261568kB time=03:03:00.82 bitrate=9893.5kbits/s speed=62.7x    frame=660614 fps=3762 q=-1.0 size=13298432kB time=03:03:30.39 bitrate=9894.4kbits/s speed=62.7x    frame=662363 fps=3761 q=-1.0 size=13334784kB time=03:03:59.53 bitrate=9895.2kbits/s speed=62.7x    frame=664239 fps=3761 q=-1.0 size=13373696kB time=03:04:30.80 bitrate=9896.1kbits/s speed=62.7x    frame=666079 fps=3761 q=-1.0 size=13412096kB time=03:05:01.46 bitrate=9897.1kbits/s speed=62.7x    frame=667955 fps=3761 q=-1.0 size=13451008kB time=03:05:32.74 bitrate=9897.9kbits/s speed=62.7x    frame=669827 fps=3761 q=-1.0 size=13489664kB time=03:06:03.93 bitrate=9898.6kbits/s speed=62.7x    frame=671562 fps=3760 q=-1.0 size=13525760kB time=03:06:32.85 bitrate=9899.4kbits/s speed=62.7x    frame=673303 fps=3759 q=-1.0 size=13561856kB time=03:07:01.86 bitrate=9900.2kbits/s speed=62.7x    frame=675078 fps=3758 q=-1.0 size=13598464kB time=03:07:31.46 bitrate=9900.8kbits/s speed=62.6x    frame=676846 fps=3758 q=-1.0 size=13635328kB time=03:08:00.92 bitrate=9901.7kbits/s speed=62.6x    frame=678682 fps=3758 q=-1.0 size=13673472kB time=03:08:31.51 bitrate=9902.6kbits/s speed=62.6x    frame=680503 fps=3757 q=-1.0 size=13711360kB time=03:09:01.87 bitrate=9903.4kbits/s speed=62.6x    frame=682371 fps=3757 q=-1.0 size=13750272kB time=03:09:32.99 bitrate=9904.4kbits/s speed=62.6x    frame=684595 fps=3759 q=-1.0 size=13789952kB time=03:10:10.06 bitrate=9900.7kbits/s speed=62.7x    frame=686665 fps=3760 q=-1.0 size=13826304kB time=03:10:44.56 bitrate=9896.8kbits/s speed=62.7x    frame=688728 fps=3761 q=-1.0 size=13866752kB time=03:11:18.94 bitrate=9896.1kbits/s speed=62.7x    frame=690627 fps=3761 q=-1.0 size=13906176kB time=03:11:50.59 bitrate=9896.9kbits/s speed=62.7x    frame=692335 fps=3760 q=-1.0 size=13941504kB time=03:12:19.07 bitrate=9897.6kbits/s speed=62.7x    frame=694255 fps=3760 q=-1.0 size=13981696kB time=03:12:51.06 bitrate=9898.7kbits/s speed=62.7x    frame=696456 fps=3762 q=-1.0 size=14021376kB time=03:13:27.74 bitrate=9895.4kbits/s speed=62.7x    frame=698656 fps=3764 q=-1.0 size=14062080kB time=03:14:04.41 bitrate=9892.9kbits/s speed=62.7x    frame=700526 fps=3764 q=-1.0 size=14101248kB time=03:14:35.58 bitrate=9893.9kbits/s speed=62.7x    frame=702273 fps=3763 q=-1.0 size=14137088kB time=03:15:04.70 bitrate=9894.4kbits/s speed=62.7x    frame=704228 fps=3763 q=-1.0 size=14177792kB time=03:15:37.28 bitrate=9895.3kbits/s speed=62.7x    frame=706058 fps=3763 q=-1.0 size=14215936kB time=03:16:07.79 bitrate=9896.2kbits/s speed=62.7x    frame=707835 fps=3763 q=-1.0 size=14253056kB time=03:16:37.39 bitrate=9897.2kbits/s speed=62.7x    frame=709725 fps=3763 q=-1.0 size=14291968kB time=03:17:08.89 bitrate=9897.8kbits/s speed=62.7x    frame=711519 fps=3762 q=-1.0 size=14329600kB time=03:17:38.79 bitrate=9898.8kbits/s speed=62.7x    frame=713421 fps=3762 q=-1.0 size=14368768kB time=03:18:10.50 bitrate=9899.4kbits/s speed=62.7x    frame=715355 fps=3762 q=-1.0 size=14408960kB time=03:18:42.73 bitrate=9900.3kbits/s speed=62.7x    frame=717166 fps=3762 q=-1.0 size=14447104kB time=03:19:12.92 bitrate=9901.4kbits/s speed=62.7x    frame=719117 fps=3762 q=-1.0 size=14487040kB time=03:19:45.43 bitrate=9901.8kbits/s speed=62.7x    frame=721056 fps=3763 q=-1.0 size=14527488kB time=03:20:17.74 bitrate=9902.8kbits/s speed=62.7x    frame=722737 fps=3762 q=-1.0 size=14562560kB time=03:20:45.76 bitrate=9903.6kbits/s speed=62.7x    frame=724579 fps=3761 q=-1.0 size=14600704kB time=03:21:16.46 bitrate=9904.3kbits/s speed=62.7x    frame=726151 fps=3760 q=-1.0 size=14633472kB time=03:21:42.66 bitrate=9905.0kbits/s speed=62.7x    frame=727748 fps=3758 q=-1.0 size=14666496kB time=03:22:09.28 bitrate=9905.6kbits/s speed=62.6x    frame=729896 fps=3760 q=-1.0 size=14705408kB time=03:22:45.08 bitrate=9902.7kbits/s speed=62.7x    frame=731897 fps=3760 q=-1.0 size=14746624kB time=03:23:18.43 bitrate=9903.3kbits/s speed=62.7x    frame=733955 fps=3761 q=-1.0 size=14781440kB time=03:23:52.73 bitrate=9898.8kbits/s speed=62.7x    frame=735881 fps=3762 q=-1.0 size=14821376kB time=03:24:24.83 bitrate=9899.6kbits/s speed=62.7x    frame=737763 fps=3762 q=-1.0 size=14860288kB time=03:24:56.19 bitrate=9900.3kbits/s speed=62.7x    frame=739492 fps=3761 q=-1.0 size=14896384kB time=03:25:25.01 bitrate=9901.1kbits/s speed=62.7x    frame=741391 fps=3761 q=-1.0 size=14935808kB time=03:25:56.67 bitrate=9901.9kbits/s speed=62.7x    frame=743159 fps=3760 q=-1.0 size=14972672kB time=03:26:26.13 bitrate=9902.7kbits/s speed=62.7x    frame=744958 fps=3760 q=-1.0 size=15010304kB time=03:26:56.11 bitrate=9903.6kbits/s speed=62.7x    frame=746744 fps=3759 q=-1.0 size=15046912kB time=03:27:25.89 bitrate=9904.0kbits/s speed=62.7x    frame=748475 fps=3759 q=-1.0 size=15083264kB time=03:27:54.73 bitrate=9905.0kbits/s speed=62.6x    frame=750371 fps=3759 q=-1.0 size=15122432kB time=03:28:26.33 bitrate=9905.6kbits/s speed=62.6x    frame=752212 fps=3758 q=-1.0 size=15160576kB time=03:28:57.02 bitrate=9906.3kbits/s speed=62.6x    frame=753940 fps=3758 q=-1.0 size=15196672kB time=03:29:25.81 bitrate=9907.1kbits/s speed=62.6x    frame=755778 fps=3758 q=-1.0 size=15235072kB time=03:29:56.44 bitrate=9908.0kbits/s speed=62.6x    frame=757574 fps=3757 q=-1.0 size=15272192kB time=03:30:26.38 bitrate=9908.6kbits/s speed=62.6x    frame=759366 fps=3757 q=-1.0 size=15309312kB time=03:30:56.26 bitrate=9909.2kbits/s speed=62.6x    frame=761242 fps=3757 q=-1.0 size=15348224kB time=03:31:27.51 bitrate=9910.0kbits/s speed=62.6x    frame=762953 fps=3756 q=-1.0 size=15383808kB time=03:31:56.03 bitrate=9910.7kbits/s speed=62.6x    frame=765091 fps=3757 q=-1.0 size=15424512kB time=03:32:31.66 bitrate=9909.1kbits/s speed=62.6x    frame=767419 fps=3759 q=-1.0 size=15464960kB time=03:33:10.46 bitrate=9905.0kbits/s speed=62.7x    frame=769065 fps=3758 q=-1.0 size=15499008kB time=03:33:37.90 bitrate=9905.5kbits/s speed=62.6x    frame=770913 fps=3758 q=-1.0 size=15537664kB time=03:34:08.70 bitrate=9906.4kbits/s speed=62.6x    frame=772782 fps=3758 q=-1.0 size=15576064kB time=03:34:39.85 bitrate=9906.9kbits/s speed=62.6x    frame=774624 fps=3758 q=-1.0 size=15614464kB time=03:35:10.55 bitrate=9907.7kbits/s speed=62.6x    frame=776442 fps=3757 q=-1.0 size=15652352kB time=03:35:40.84 bitrate=9908.5kbits/s speed=62.6x    frame=778188 fps=3757 q=-1.0 size=15688448kB time=03:36:09.94 bitrate=9909.0kbits/s speed=62.6x    frame=780038 fps=3757 q=-1.0 size=15727104kB time=03:36:40.78 bitrate=9909.9kbits/s speed=62.6x    frame=781915 fps=3757 q=-1.0 size=15766016kB time=03:37:12.06 bitrate=9910.6kbits/s speed=62.6x    frame=783694 fps=3756 q=-1.0 size=15803136kB time=03:37:41.71 bitrate=9911.4kbits/s speed=62.6x    frame=785593 fps=3756 q=-1.0 size=15842304kB time=03:38:13.36 bitrate=9911.9kbits/s speed=62.6x    frame=787416 fps=3756 q=-1.0 size=15880192kB time=03:38:43.74 bitrate=9912.6kbits/s speed=62.6x    frame=789115 fps=3755 q=-1.0 size=15915520kB time=03:39:12.06 bitrate=9913.3kbits/s speed=62.6x    frame=791019 fps=3755 q=-1.0 size=15954944kB time=03:39:43.81 bitrate=9913.9kbits/s speed=62.6x    frame=792777 fps=3755 q=-1.0 size=15991808kB time=03:40:13.09 bitrate=9914.8kbits/s speed=62.6x    frame=794609 fps=3754 q=-1.0 size=16029696kB time=03:40:43.63 bitrate=9915.4kbits/s speed=62.6x    frame=796502 fps=3755 q=-1.0 size=16068864kB time=03:41:15.18 bitrate=9916.0kbits/s speed=62.6x    frame=798206 fps=3754 q=-1.0 size=16104448kB time=03:41:43.58 bitrate=9916.7kbits/s speed=62.6x    frame=800374 fps=3755 q=-1.0 size=16143104kB time=03:42:19.71 bitrate=9913.6kbits/s speed=62.6x    frame=802338 fps=3755 q=-1.0 size=16183808kB time=03:42:52.44 bitrate=9914.2kbits/s speed=62.6x    frame=804584 fps=3757 q=-1.0 size=16218880kB time=03:43:29.88 bitrate=9908.0kbits/s speed=62.6x    frame=806495 fps=3757 q=-1.0 size=16258304kB time=03:44:01.73 bitrate=9908.5kbits/s speed=62.6x    frame=808220 fps=3757 q=-1.0 size=16294400kB time=03:44:30.48 bitrate=9909.4kbits/s speed=62.6x    frame=810045 fps=3756 q=-1.0 size=16332288kB time=03:45:00.91 bitrate=9910.0kbits/s speed=62.6x    frame=811935 fps=3756 q=-1.0 size=16371456kB time=03:45:32.39 bitrate=9910.7kbits/s speed=62.6x    frame=813609 fps=3755 q=-1.0 size=16406272kB time=03:46:00.30 bitrate=9911.3kbits/s speed=62.6x    frame=815529 fps=3756 q=-1.0 size=16446208kB time=03:46:32.30 bitrate=9912.0kbits/s speed=62.6x    frame=817432 fps=3756 q=-1.0 size=16485888kB time=03:47:04.02 bitrate=9912.8kbits/s speed=62.6x    frame=819108 fps=3755 q=-1.0 size=16520448kB time=03:47:31.94 bitrate=9913.3kbits/s speed=62.6x    frame=821022 fps=3755 q=-1.0 size=16560384kB time=03:48:03.84 bitrate=9914.1kbits/s speed=62.6x    frame=822878 fps=3755 q=-1.0 size=16599040kB time=03:48:34.78 bitrate=9914.8kbits/s speed=62.6x    frame=824764 fps=3755 q=-1.0 size=16638208kB time=03:49:06.22 bitrate=9915.5kbits/s speed=62.6x    frame=826653 fps=3755 q=-1.0 size=16677376kB time=03:49:37.69 bitrate=9916.1kbits/s speed=62.6x    frame=828372 fps=3754 q=-1.0 size=16713216kB time=03:50:06.36 bitrate=9916.8kbits/s speed=62.6x    frame=830200 fps=3754 q=-1.0 size=16751104kB time=03:50:36.81 bitrate=9917.4kbits/s speed=62.6x    frame=832331 fps=3755 q=-1.0 size=16791040kB time=03:51:12.34 bitrate=9915.6kbits/s speed=62.6x    frame=834166 fps=3755 q=-1.0 size=16828928kB time=03:51:42.91 bitrate=9916.1kbits/s speed=62.6x    frame=836451 fps=3757 q=-1.0 size=16868608kB time=03:52:20.99 bitrate=9912.3kbits/s speed=62.6x    frame=838236 fps=3756 q=-1.0 size=16905984kB time=03:52:50.74 bitrate=9913.1kbits/s speed=62.6x    frame=840151 fps=3757 q=-1.0 size=16945920kB time=03:53:22.67 bitrate=9913.9kbits/s speed=62.6x    frame=842034 fps=3757 q=-1.0 size=16984832kB time=03:53:54.04 bitrate=9914.4kbits/s speed=62.6x    frame=843795 fps=3756 q=-1.0 size=17021184kB time=03:54:23.40 bitrate=9914.9kbits/s speed=62.6x    frame=845671 fps=3756 q=-1.0 size=17060352kB time=03:54:54.66 bitrate=9915.7kbits/s speed=62.6x    frame=847581 fps=3756 q=-1.0 size=17100032kB time=03:55:26.49 bitrate=9916.4kbits/s speed=62.6x    frame=849448 fps=3756 q=-1.0 size=17138688kB time=03:55:57.61 bitrate=9916.9kbits/s speed=62.6x    frame=851374 fps=3756 q=-1.0 size=17178624kB time=03:56:29.72 bitrate=9917.6kbits/s speed=62.6x    frame=853261 fps=3756 q=-1.0 size=17217792kB time=03:57:01.16 bitrate=9918.2kbits/s speed=62.6x    frame=855039 fps=3756 q=-1.0 size=17254912kB time=03:57:30.79 bitrate=9918.9kbits/s speed=62.6x    frame=856973 fps=3756 q=-1.0 size=17295104kB time=03:58:03.03 bitrate=9919.6kbits/s speed=62.6x    frame=858760 fps=3756 q=-1.0 size=17331968kB time=03:58:32.81 bitrate=9920.0kbits/s speed=62.6x    frame=860572 fps=3755 q=-1.0 size=17369856kB time=03:59:03.01 bitrate=9920.8kbits/s speed=62.6x    frame=862500 fps=3756 q=-1.0 size=17410048kB time=03:59:35.15 bitrate=9921.5kbits/s speed=62.6x    frame=864228 fps=3755 q=-1.0 size=17445632kB time=04:00:03.95 bitrate=9921.9kbits/s speed=62.6x    frame=866180 fps=3755 q=-1.0 size=17485056kB time=04:00:36.48 bitrate=9921.9kbits/s speed=62.6x    frame=868475 fps=3757 q=-1.0 size=17524736kB time=04:01:14.73 bitrate=9918.2kbits/s speed=62.6x    frame=873309 fps=3770 q=-1.0 size=17560064kB time=04:02:35.31 bitrate=9883.1kbits/s speed=62.8x    frame=877577 fps=3780 q=-1.0 size=17598720kB time=04:03:46.43 bitrate=9856.7kbits/s speed=  63x    frame=880324 fps=3784 q=-1.0 size=17636352kB time=04:04:32.21 bitrate=9847.0kbits/s speed=63.1x    frame=883189 fps=3788 q=-1.0 size=17675520kB time=04:05:19.96 bitrate=9836.8kbits/s speed=63.1x    frame=886159 fps=3793 q=-1.0 size=17716480kB time=04:06:09.46 bitrate=9826.6kbits/s speed=63.2x    frame=888507 fps=3794 q=-1.0 size=17753344kB time=04:06:48.60 bitrate=9821.0kbits/s speed=63.2x    frame=890907 fps=3797 q=-1.0 size=17789440kB time=04:07:28.60 bitrate=9814.5kbits/s speed=63.3x    frame=893545 fps=3800 q=-1.0 size=17830400kB time=04:08:12.56 bitrate=9808.0kbits/s speed=63.3x    frame=895896 fps=3802 q=-1.0 size=17865472kB time=04:08:51.75 bitrate=9801.5kbits/s speed=63.4x    frame=898969 fps=3807 q=-1.0 size=17905152kB time=04:09:42.96 bitrate=9789.7kbits/s speed=63.4x    frame=900989 fps=3807 q=-1.0 size=17943296kB time=04:10:16.64 bitrate=9788.6kbits/s speed=63.5x    frame=903068 fps=3808 q=-1.0 size=17984256kB time=04:10:51.28 bitrate=9788.3kbits/s speed=63.5x    frame=905070 fps=3808 q=-1.0 size=18024960kB time=04:11:24.65 bitrate=9788.8kbits/s speed=63.5x    frame=906927 fps=3808 q=-1.0 size=18062336kB time=04:11:55.59 bitrate=9789.0kbits/s speed=63.5x    frame=908977 fps=3809 q=-1.0 size=18102528kB time=04:12:29.76 bitrate=9788.7kbits/s speed=63.5x    frame=911749 fps=3812 q=-1.0 size=18141440kB time=04:13:15.96 bitrate=9779.9kbits/s speed=63.5x    frame=914117 fps=3814 q=-1.0 size=18181632kB time=04:13:55.43 bitrate=9776.2kbits/s speed=63.6x    frame=916909 fps=3818 q=-1.0 size=18220800kB time=04:14:41.96 bitrate=9767.4kbits/s speed=63.6x    frame=919031 fps=3819 q=-1.0 size=18262016kB time=04:15:17.33 bitrate=9766.9kbits/s speed=63.6x    frame=920930 fps=3819 q=-1.0 size=18298368kB time=04:15:48.98 bitrate=9766.1kbits/s speed=63.6x    frame=923267 fps=3820 q=-1.0 size=18340096kB time=04:16:27.93 bitrate=9763.6kbits/s speed=63.7x    frame=925623 fps=3822 q=-1.0 size=18379520kB time=04:17:07.19 bitrate=9759.7kbits/s speed=63.7x    frame=929534 fps=3831 q=-1.0 size=18418176kB time=04:18:12.38 bitrate=9739.1kbits/s speed=63.8x    frame=931514 fps=3831 q=-1.0 size=18456832kB time=04:18:45.38 bitrate=9738.8kbits/s speed=63.8x    frame=933322 fps=3830 q=-1.0 size=18492672kB time=04:19:15.51 bitrate=9738.8kbits/s speed=63.8x    frame=935487 fps=3831 q=-1.0 size=18531584kB time=04:19:51.59 bitrate=9736.7kbits/s speed=63.9x    frame=937483 fps=3832 q=-1.0 size=18570752kB time=04:20:24.86 bitrate=9736.5kbits/s speed=63.9x    frame=940019 fps=3834 q=-1.0 size=18608384kB time=04:21:07.13 bitrate=9729.9kbits/s speed=63.9x    frame=942637 fps=3837 q=-1.0 size=18647040kB time=04:21:50.76 bitrate=9723.1kbits/s speed=  64x    frame=945173 fps=3840 q=-1.0 size=18684672kB time=04:22:33.03 bitrate=9716.5kbits/s speed=  64x    frame=947745 fps=3842 q=-1.0 size=18723584kB time=04:23:15.90 bitrate=9710.3kbits/s speed=  64x    frame=950225 fps=3844 q=-1.0 size=18763264kB time=04:23:57.23 bitrate=9705.5kbits/s speed=64.1x    frame=952121 fps=3844 q=-1.0 size=18800640kB time=04:24:28.83 bitrate=9705.5kbits/s speed=64.1x    frame=954176 fps=3845 q=-1.0 size=18840064kB time=04:25:03.08 bitrate=9704.9kbits/s speed=64.1x    frame=956809 fps=3848 q=-1.0 size=18881536kB time=04:25:46.96 bitrate=9699.5kbits/s speed=64.1x    frame=959735 fps=3852 q=-1.0 size=18916608kB time=04:26:35.73 bitrate=9687.9kbits/s speed=64.2x    frame=962107 fps=3854 q=-1.0 size=18956800kB time=04:27:15.26 bitrate=9684.5kbits/s speed=64.2x    frame=964539 fps=3855 q=-1.0 size=18995968kB time=04:27:55.79 bitrate=9680.1kbits/s speed=64.3x    frame=966955 fps=3857 q=-1.0 size=19034368kB time=04:28:36.06 bitrate=9675.4kbits/s speed=64.3x    frame=969476 fps=3860 q=-1.0 size=19075072kB time=04:29:18.08 bitrate=9670.9kbits/s speed=64.3x    frame=971944 fps=3862 q=-1.0 size=19113984kB time=04:29:59.21 bitrate=9666.0kbits/s speed=64.4x    frame=974395 fps=3864 q=-1.0 size=19154176kB time=04:30:40.06 bitrate=9662.0kbits/s speed=64.4x    frame=976877 fps=3866 q=-1.0 size=19195392kB time=04:31:21.43 bitrate=9658.2kbits/s speed=64.4x    frame=979411 fps=3869 q=-1.0 size=19232768kB time=04:32:03.66 bitrate=9651.9kbits/s speed=64.5x    frame=982277 fps=3872 q=-1.0 size=19270656kB time=04:32:51.43 bitrate=9642.7kbits/s speed=64.5x    frame=984290 fps=3872 q=-1.0 size=19309568kB time=04:33:24.98 bitrate=9642.4kbits/s speed=64.5x    frame=986319 fps=3873 q=-1.0 size=19348736kB time=04:33:58.79 bitrate=9642.1kbits/s speed=64.5x    frame=988596 fps=3874 q=-1.0 size=19388928kB time=04:34:36.76 bitrate=9639.9kbits/s speed=64.6x    frame=990463 fps=3874 q=-1.0 size=19424768kB time=04:35:07.86 bitrate=9639.5kbits/s speed=64.6x    frame=992613 fps=3875 q=-1.0 size=19464192kB time=04:35:43.70 bitrate=9638.1kbits/s speed=64.6x    frame=994706 fps=3875 q=-1.0 size=19503872kB time=04:36:18.58 bitrate=9637.5kbits/s speed=64.6x    frame=996608 fps=3875 q=-1.0 size=19539968kB time=04:36:50.28 bitrate=9636.9kbits/s speed=64.6x    frame=998731 fps=3876 q=-1.0 size=19576320kB time=04:37:25.66 bitrate=9634.3kbits/s speed=64.6x    frame=1001181 fps=3878 q=-1.0 size=19615488kB time=04:38:06.49 bitrate=9629.9kbits/s speed=64.6x    frame=1003174 fps=3878 q=-1.0 size=19655168kB time=04:38:39.72 bitrate=9630.2kbits/s speed=64.6x    frame=1005067 fps=3878 q=-1.0 size=19691264kB time=04:39:11.26 bitrate=9629.8kbits/s speed=64.6x    frame=1007163 fps=3878 q=-1.0 size=19730432kB time=04:39:46.19 bitrate=9628.8kbits/s speed=64.6x    frame=1009254 fps=3879 q=-1.0 size=19768320kB time=04:40:21.04 bitrate=9627.3kbits/s speed=64.7x    frame=1011214 fps=3879 q=-1.0 size=19805696kB time=04:40:53.72 bitrate=9626.9kbits/s speed=64.7x    frame=1013357 fps=3880 q=-1.0 size=19846144kB time=04:41:29.43 bitrate=9626.1kbits/s speed=64.7x    frame=1015348 fps=3880 q=-1.0 size=19884544kB time=04:42:02.62 bitrate=9625.8kbits/s speed=64.7x    frame=1017834 fps=3882 q=-1.0 size=19923456kB time=04:42:44.05 bitrate=9621.1kbits/s speed=64.7x    frame=1020197 fps=3884 q=-1.0 size=19961856kB time=04:43:23.43 bitrate=9617.3kbits/s speed=64.7x    frame=1023170 fps=3888 q=-1.0 size=20001280kB time=04:44:12.98 bitrate=9608.3kbits/s speed=64.8x    frame=1026767 fps=3894 q=-1.0 size=20038656kB time=04:45:12.93 bitrate=9592.6kbits/s speed=64.9x    frame=1029258 fps=3896 q=-1.0 size=20075520kB time=04:45:54.44 bitrate=9586.9kbits/s speed=64.9x    frame=1031296 fps=3896 q=-1.0 size=20115968kB time=04:46:28.42 bitrate=9587.3kbits/s speed=64.9x    frame=1033199 fps=3896 q=-1.0 size=20153088kB time=04:47:00.14 bitrate=9587.3kbits/s speed=64.9x    frame=1035073 fps=3896 q=-1.0 size=20190976kB time=04:47:31.37 bitrate=9587.9kbits/s speed=64.9x    frame=1038195 fps=3900 q=-1.0 size=20230656kB time=04:48:23.40 bitrate=9577.9kbits/s speed=  65x    frame=1041034 fps=3904 q=-1.0 size=20265216kB time=04:49:10.72 bitrate=9568.1kbits/s speed=65.1x    frame=1044401 fps=3909 q=-1.0 size=20305664kB time=04:50:06.83 bitrate=9556.2kbits/s speed=65.1x    frame=1047023 fps=3911 q=-1.0 size=20344576kB time=04:50:50.54 bitrate=9550.6kbits/s speed=65.2x    frame=1049307 fps=3913 q=-1.0 size=20381440kB time=04:51:28.59 bitrate=9547.1kbits/s speed=65.2x    frame=1051535 fps=3914 q=-1.0 size=20421888kB time=04:52:05.73 bitrate=9545.7kbits/s speed=65.2x    frame=1053402 fps=3913 q=-1.0 size=20459776kB time=04:52:36.84 bitrate=9546.5kbits/s speed=65.2x    frame=1056077 fps=3916 q=-1.0 size=20497664kB time=04:53:21.43 bitrate=9540.0kbits/s speed=65.3x    frame=1058129 fps=3916 q=-1.0 size=20538112kB time=04:53:55.63 bitrate=9540.2kbits/s speed=65.3x    frame=1059928 fps=3916 q=-1.0 size=20573696kB time=04:54:25.62 bitrate=9540.5kbits/s speed=65.3x    frame=1062435 fps=3918 q=-1.0 size=20613632kB time=04:55:07.39 bitrate=9536.5kbits/s speed=65.3x    frame=1064532 fps=3918 q=-1.0 size=20653312kB time=04:55:42.34 bitrate=9536.1kbits/s speed=65.3x    frame=1066511 fps=3918 q=-1.0 size=20691968kB time=04:56:15.33 bitrate=9536.2kbits/s speed=65.3x    frame=1068643 fps=3919 q=-1.0 size=20730624kB time=04:56:50.86 bitrate=9534.9kbits/s speed=65.3x    frame=1070711 fps=3919 q=-1.0 size=20767744kB time=04:57:25.33 bitrate=9533.5kbits/s speed=65.3x    frame=1073512 fps=3922 q=-1.0 size=20803840kB time=04:58:12.01 bitrate=9525.2kbits/s speed=65.4x    frame=1075651 fps=3923 q=-1.0 size=20840704kB time=04:58:47.66 bitrate=9523.1kbits/s speed=65.4x    frame=1077647 fps=3923 q=-1.0 size=20879616kB time=04:59:20.93 bitrate=9523.2kbits/s speed=65.4x    frame=1079666 fps=3923 q=-1.0 size=20916224kB time=04:59:54.58 bitrate=9522.1kbits/s speed=65.4x    frame=1081507 fps=3923 q=-1.0 size=20951040kB time=05:00:25.26 bitrate=9521.7kbits/s speed=65.4x    frame=1083711 fps=3924 q=-1.0 size=20990976kB time=05:01:01.99 bitrate=9520.4kbits/s speed=65.4x    frame=1086318 fps=3926 q=-1.0 size=21030400kB time=05:01:45.44 bitrate=9515.4kbits/s speed=65.4x    frame=1088503 fps=3927 q=-1.0 size=21066496kB time=05:02:21.87 bitrate=9512.6kbits/s speed=65.4x    frame=1090650 fps=3928 q=-1.0 size=21102848kB time=05:02:57.64 bitrate=9510.3kbits/s speed=65.5x    frame=1093124 fps=3929 q=-1.0 size=21143808kB time=05:03:38.88 bitrate=9507.2kbits/s speed=65.5x    frame=1095233 fps=3930 q=-1.0 size=21183232kB time=05:04:14.04 bitrate=9506.6kbits/s speed=65.5x    frame=1098176 fps=3933 q=-1.0 size=21222144kB time=05:05:03.08 bitrate=9498.5kbits/s speed=65.6x    frame=1101121 fps=3937 q=-1.0 size=21261056kB time=05:05:52.17 bitrate=9490.5kbits/s speed=65.6x    frame=1103008 fps=3937 q=-1.0 size=21294848kB time=05:06:23.62 bitrate=9489.3kbits/s speed=65.6x    frame=1104940 fps=3936 q=-1.0 size=21331712kB time=05:06:55.81 bitrate=9489.1kbits/s speed=65.6x    frame=1109313 fps=3945 q=-1.0 size=21368576kB time=05:08:08.69 bitrate=9468.0kbits/s speed=65.8x    frame=1112841 fps=3951 q=-1.0 size=21403136kB time=05:09:07.49 bitrate=9453.3kbits/s speed=65.8x    frame=1117251 fps=3959 q=-1.0 size=21440768kB time=05:10:20.99 bitrate=9432.5kbits/s speed=  66x    frame=1121261 fps=3966 q=-1.0 size=21477888kB time=05:11:27.83 bitrate=9415.1kbits/s speed=66.1x    frame=1125371 fps=3974 q=-1.0 size=21512960kB time=05:12:36.33 bitrate=9396.0kbits/s speed=66.2x    frame=1131473 fps=3988 q=-1.0 size=21550592kB time=05:14:18.03 bitrate=9361.7kbits/s speed=66.5x    frame=1134195 fps=3991 q=-1.0 size=21586944kB time=05:15:03.40 bitrate=9354.9kbits/s speed=66.5x    frame=1136196 fps=3991 q=-1.0 size=21627648kB time=05:15:36.75 bitrate=9356.1kbits/s speed=66.5x    frame=1138487 fps=3992 q=-1.0 size=21668096kB time=05:16:14.93 bitrate=9354.7kbits/s speed=66.5x    frame=1140462 fps=3992 q=-1.0 size=21704960kB time=05:16:47.84 bitrate=9354.4kbits/s speed=66.5x    frame=1143510 fps=3996 q=-1.0 size=21745920kB time=05:17:38.64 bitrate=9347.1kbits/s speed=66.6x    frame=1145713 fps=3996 q=-1.0 size=21786880kB time=05:18:15.36 bitrate=9346.7kbits/s speed=66.6x    frame=1147731 fps=3996 q=-1.0 size=21824512kB time=05:18:49.00 bitrate=9346.4kbits/s speed=66.6x    frame=1149868 fps=3997 q=-1.0 size=21864448kB time=05:19:24.61 bitrate=9346.1kbits/s speed=66.6x    frame=1151892 fps=3997 q=-1.0 size=21903104kB time=05:19:58.34 bitrate=9346.1kbits/s speed=66.6x    frame=1153859 fps=3997 q=-1.0 size=21941504kB time=05:20:31.13 bitrate=9346.6kbits/s speed=66.6x    frame=1155905 fps=3997 q=-1.0 size=21981952kB time=05:21:05.24 bitrate=9347.2kbits/s speed=66.6x    frame=1158372 fps=3999 q=-1.0 size=22017024kB time=05:21:46.35 bitrate=9342.2kbits/s speed=66.6x    frame=1160548 fps=3999 q=-1.0 size=22057728kB time=05:22:22.61 bitrate=9341.9kbits/s speed=66.7x    frame=1162715 fps=4000 q=-1.0 size=22098688kB time=05:22:58.73 bitrate=9341.8kbits/s speed=66.7x    frame=1164712 fps=4000 q=-1.0 size=22136064kB time=05:23:32.01 bitrate=9341.6kbits/s speed=66.7x    frame=1166953 fps=4001 q=-1.0 size=22176768kB time=05:24:09.36 bitrate=9340.8kbits/s speed=66.7x    frame=1168993 fps=4001 q=-1.0 size=22216704kB time=05:24:43.37 bitrate=9341.3kbits/s speed=66.7x    frame=1171721 fps=4003 q=-1.0 size=22256640kB time=05:25:28.83 bitrate=9336.3kbits/s speed=66.7x    frame=1174295 fps=4005 q=-1.0 size=22296320kB time=05:26:11.73 bitrate=9332.4kbits/s speed=66.8x    frame=1177947 fps=4011 q=-1.0 size=22334208kB time=05:27:12.60 bitrate=9319.3kbits/s speed=66.8x    frame=1180122 fps=4011 q=-1.0 size=22373120kB time=05:27:48.84 bitrate=9318.3kbits/s speed=66.9x    frame=1182121 fps=4011 q=-1.0 size=22414336kB time=05:28:22.16 bitrate=9319.7kbits/s speed=66.9x    frame=1183972 fps=4011 q=-1.0 size=22451456kB time=05:28:53.01 bitrate=9320.5kbits/s speed=66.8x    frame=1186031 fps=4011 q=-1.0 size=22491904kB time=05:29:27.33 bitrate=9321.1kbits/s speed=66.8x    frame=1188070 fps=4011 q=-1.0 size=22530048kB time=05:30:01.32 bitrate=9320.9kbits/s speed=66.9x    frame=1189837 fps=4010 q=-1.0 size=22564096kB time=05:30:30.76 bitrate=9321.1kbits/s speed=66.8x    frame=1192006 fps=4011 q=-1.0 size=22605056kB time=05:31:06.91 bitrate=9321.1kbits/s speed=66.8x    frame=1194257 fps=4012 q=-1.0 size=22642688kB time=05:31:44.43 bitrate=9319.0kbits/s speed=66.9x    frame=1196169 fps=4011 q=-1.0 size=22680064kB time=05:32:16.29 bitrate=9319.4kbits/s speed=66.9x    frame=1199074 fps=4014 q=-1.0 size=22718976kB time=05:33:04.71 bitrate=9312.8kbits/s speed=66.9x    frame=1200932 fps=4014 q=-1.0 size=22755072kB time=05:33:35.68 bitrate=9313.2kbits/s speed=66.9x    frame=1202953 fps=4014 q=-1.0 size=22792192kB time=05:34:09.36 bitrate=9312.7kbits/s speed=66.9x    frame=1204999 fps=4014 q=-1.0 size=22830080kB time=05:34:43.46 bitrate=9312.3kbits/s speed=66.9x    frame=1207132 fps=4014 q=-1.0 size=22870016kB time=05:35:19.02 bitrate=9312.1kbits/s speed=66.9x    frame=1210231 fps=4018 q=-1.0 size=22908160kB time=05:36:10.66 bitrate=9303.8kbits/s speed=  67x    frame=1212260 fps=4018 q=-1.0 size=22947840kB time=05:36:44.48 bitrate=9304.3kbits/s speed=  67x    frame=1214289 fps=4018 q=-1.0 size=22987776kB time=05:37:18.29 bitrate=9304.9kbits/s speed=  67x    frame=1216276 fps=4018 q=-1.0 size=23026432kB time=05:37:51.41 bitrate=9305.3kbits/s speed=  67x    frame=1218259 fps=4018 q=-1.0 size=23065856kB time=05:38:24.47 bitrate=9306.1kbits/s speed=  67x    frame=1220237 fps=4018 q=-1.0 size=23103744kB time=05:38:57.43 bitrate=9306.3kbits/s speed=  67x    frame=1222009 fps=4017 q=-1.0 size=23138560kB time=05:39:26.96 bitrate=9306.8kbits/s speed=66.9x    frame=1223824 fps=4016 q=-1.0 size=23173120kB time=05:39:57.21 bitrate=9306.9kbits/s speed=66.9x    frame=1225823 fps=4016 q=-1.0 size=23212288kB time=05:40:30.53 bitrate=9307.4kbits/s speed=66.9x    frame=1227832 fps=4016 q=-1.0 size=23251712kB time=05:41:04.02 bitrate=9307.9kbits/s speed=66.9x    frame=1229870 fps=4016 q=-1.0 size=23291392kB time=05:41:37.98 bitrate=9308.4kbits/s speed=66.9x    frame=1231905 fps=4016 q=-1.0 size=23330816kB time=05:42:11.90 bitrate=9308.7kbits/s speed=66.9x    frame=1233827 fps=4016 q=-1.0 size=23368448kB time=05:42:43.93 bitrate=9309.2kbits/s speed=66.9x    frame=1235779 fps=4016 q=-1.0 size=23407360kB time=05:43:16.46 bitrate=9310.0kbits/s speed=66.9x    frame=1237809 fps=4016 q=-1.0 size=23446528kB time=05:43:50.29 bitrate=9310.3kbits/s speed=66.9x    frame=1239594 fps=4015 q=-1.0 size=23480576kB time=05:44:20.05 bitrate=9310.4kbits/s speed=66.9x    frame=1241455 fps=4015 q=-1.0 size=23517696kB time=05:44:51.06 bitrate=9311.1kbits/s speed=66.9x    frame=1243284 fps=4014 q=-1.0 size=23553536kB time=05:45:21.54 bitrate=9311.6kbits/s speed=66.9x    frame=1245140 fps=4014 q=-1.0 size=23589376kB time=05:45:52.49 bitrate=9311.9kbits/s speed=66.9x    frame=1247085 fps=4014 q=-1.0 size=23626496kB time=05:46:24.90 bitrate=9312.0kbits/s speed=66.9x    frame=1248919 fps=4013 q=-1.0 size=23660800kB time=05:46:55.46 bitrate=9311.8kbits/s speed=66.9x    frame=1251249 fps=4014 q=-1.0 size=23699456kB time=05:47:34.29 bitrate=9309.6kbits/s speed=66.9x    frame=1253276 fps=4014 q=-1.0 size=23738880kB time=05:48:08.08 bitrate=9310.0kbits/s speed=66.9x    frame=1255105 fps=4014 q=-1.0 size=23774208kB time=05:48:38.57 bitrate=9310.3kbits/s speed=66.9x    frame=1257121 fps=4014 q=-1.0 size=23813888kB time=05:49:12.17 bitrate=9310.9kbits/s speed=66.9x    frame=1259126 fps=4014 q=-1.0 size=23852544kB time=05:49:45.58 bitrate=9311.2kbits/s speed=66.9x    frame=1261143 fps=4014 q=-1.0 size=23892480kB time=05:50:19.19 bitrate=9311.8kbits/s speed=66.9x    frame=1263234 fps=4014 q=-1.0 size=23932416kB time=05:50:54.04 bitrate=9312.0kbits/s speed=66.9x    frame=1265346 fps=4014 q=-1.0 size=23970304kB time=05:51:29.24 bitrate=9311.1kbits/s speed=66.9x    frame=1267299 fps=4014 q=-1.0 size=24008960kB time=05:52:01.79 bitrate=9311.8kbits/s speed=66.9x    frame=1269457 fps=4014 q=-1.0 size=24050688kB time=05:52:37.76 bitrate=9312.1kbits/s speed=66.9x    frame=1271321 fps=4014 q=-1.0 size=24086016kB time=05:53:08.83 bitrate=9312.1kbits/s speed=66.9x    frame=1274473 fps=4018 q=-1.0 size=24126720kB time=05:54:01.36 bitrate=9304.8kbits/s speed=  67x    frame=1276548 fps=4018 q=-1.0 size=24167936kB time=05:54:35.95 bitrate=9305.5kbits/s speed=  67x    frame=1278424 fps=4017 q=-1.0 size=24205312kB time=05:55:07.22 bitrate=9306.2kbits/s speed=  67x    frame=1280530 fps=4018 q=-1.0 size=24246784kB time=05:55:42.31 bitrate=9306.8kbits/s speed=  67x    frame=1282561 fps=4018 q=-1.0 size=24287232kB time=05:56:16.16 bitrate=9307.6kbits/s speed=  67x    frame=1284531 fps=4018 q=-1.0 size=24328192kB time=05:56:48.99 bitrate=9309.0kbits/s speed=  67x    frame=1286691 fps=4018 q=-1.0 size=24369664kB time=05:57:24.99 bitrate=9309.2kbits/s speed=  67x    frame=1288569 fps=4018 q=-1.0 size=24408832kB time=05:57:56.29 bitrate=9310.6kbits/s speed=  67x    frame=1290728 fps=4018 q=-1.0 size=24450048kB time=05:58:32.28 bitrate=9310.7kbits/s speed=  67x    frame=1292796 fps=4018 q=-1.0 size=24489472kB time=05:59:06.75 bitrate=9310.8kbits/s speed=  67x    frame=1294733 fps=4018 q=-1.0 size=24527616kB time=05:59:39.03 bitrate=9311.4kbits/s speed=  67x    frame=1296746 fps=4018 q=-1.0 size=24568576kB time=06:00:12.59 bitrate=9312.4kbits/s speed=  67x    frame=1298732 fps=4018 q=-1.0 size=24608000kB time=06:00:45.68 bitrate=9313.1kbits/s speed=  67x    frame=1300623 fps=4018 q=-1.0 size=24646400kB time=06:01:17.19 bitrate=9314.1kbits/s speed=  67x    frame=1303387 fps=4020 q=-1.0 size=24686336kB time=06:02:03.26 bitrate=9309.4kbits/s speed=  67x    frame=1305426 fps=4020 q=-1.0 size=24722688kB time=06:02:37.25 bitrate=9308.5kbits/s speed=  67x    frame=1307510 fps=4020 q=-1.0 size=24762368kB time=06:03:11.98 bitrate=9308.6kbits/s speed=  67x    frame=1310131 fps=4022 q=-1.0 size=24800512kB time=06:03:55.67 bitrate=9304.3kbits/s speed=  67x    frame=1313259 fps=4026 q=-1.0 size=24838144kB time=06:04:47.81 bitrate=9296.2kbits/s speed=67.1x    frame=1315640 fps=4027 q=-1.0 size=24877824kB time=06:05:27.49 bitrate=9294.2kbits/s speed=67.1x    frame=1318139 fps=4028 q=-1.0 size=24917248kB time=06:06:09.13 bitrate=9291.3kbits/s speed=67.1x    frame=1320370 fps=4029 q=-1.0 size=24954624kB time=06:06:46.31 bitrate=9289.5kbits/s speed=67.1x    frame=1322669 fps=4030 q=-1.0 size=24996096kB time=06:07:24.63 bitrate=9288.8kbits/s speed=67.2x    frame=1325332 fps=4032 q=-1.0 size=25034752kB time=06:08:09.02 bitrate=9284.5kbits/s speed=67.2x    frame=1327753 fps=4033 q=-1.0 size=25075456kB time=06:08:49.36 bitrate=9282.6kbits/s speed=67.2x    frame=1329686 fps=4033 q=-1.0 size=25115392kB time=06:09:21.58 bitrate=9283.9kbits/s speed=67.2x    frame=1331499 fps=4032 q=-1.0 size=25153280kB time=06:09:51.81 bitrate=9285.2kbits/s speed=67.2x    frame=1333776 fps=4033 q=-1.0 size=25193728kB time=06:10:29.74 bitrate=9284.3kbits/s speed=67.2x    frame=1335680 fps=4032 q=-1.0 size=25233152kB time=06:11:01.48 bitrate=9285.5kbits/s speed=67.2x    frame=1337704 fps=4032 q=-1.0 size=25273856kB time=06:11:35.21 bitrate=9286.5kbits/s speed=67.2x    frame=1339662 fps=4032 q=-1.0 size=25314816kB time=06:12:07.85 bitrate=9287.9kbits/s speed=67.2x    frame=1341597 fps=4032 q=-1.0 size=25352192kB time=06:12:40.11 bitrate=9288.2kbits/s speed=67.2x    frame=1343569 fps=4032 q=-1.0 size=25393152kB time=06:13:12.96 bitrate=9289.6kbits/s speed=67.2x    frame=1346103 fps=4033 q=-1.0 size=25433856kB time=06:13:55.20 bitrate=9286.9kbits/s speed=67.2x    frame=1347786 fps=4032 q=-1.0 size=25468928kB time=06:14:23.25 bitrate=9288.1kbits/s speed=67.2x    frame=1350002 fps=4033 q=-1.0 size=25509888kB time=06:15:00.18 bitrate=9287.8kbits/s speed=67.2x    frame=1351931 fps=4033 q=-1.0 size=25550080kB time=06:15:32.33 bitrate=9289.2kbits/s speed=67.2x    frame=1354251 fps=4034 q=-1.0 size=25585920kB time=06:16:11.01 bitrate=9286.2kbits/s speed=67.2x    frame=1356845 fps=4035 q=-1.0 size=25625856kB time=06:16:54.23 bitrate=9283.0kbits/s speed=67.3x    frame=1359099 fps=4036 q=-1.0 size=25664768kB time=06:17:31.79 bitrate=9281.6kbits/s speed=67.3x    frame=1361594 fps=4037 q=-1.0 size=25705728kB time=06:18:13.38 bitrate=9279.4kbits/s speed=67.3x    frame=1363832 fps=4038 q=-1.0 size=25746944kB time=06:18:50.68 bitrate=9279.0kbits/s speed=67.3x    frame=1365862 fps=4038 q=-1.0 size=25783296kB time=06:19:24.52 bitrate=9278.3kbits/s speed=67.3x    frame=1368090 fps=4039 q=-1.0 size=25824512kB time=06:20:01.64 bitrate=9278.0kbits/s speed=67.3x    frame=1370954 fps=4041 q=-1.0 size=25865216kB time=06:20:49.38 bitrate=9273.2kbits/s speed=67.4x    frame=1372897 fps=4041 q=-1.0 size=25902592kB time=06:21:21.77 bitrate=9273.5kbits/s speed=67.4x    frame=1375009 fps=4041 q=-1.0 size=25943040kB time=06:21:56.97 bitrate=9273.7kbits/s speed=67.4x    frame=1377308 fps=4042 q=-1.0 size=25979392kB time=06:22:35.28 bitrate=9271.2kbits/s speed=67.4x    frame=1380278 fps=4045 q=-1.0 size=26018304kB time=06:23:24.78 bitrate=9265.1kbits/s speed=67.4x    frame=1382766 fps=4046 q=-1.0 size=26059008kB time=06:24:06.25 bitrate=9262.9kbits/s speed=67.4x    frame=1385023 fps=4047 q=-1.0 size=26094848kB time=06:24:43.86 bitrate=9260.5kbits/s speed=67.4x    frame=1387857 fps=4049 q=-1.0 size=26134784kB time=06:25:31.09 bitrate=9255.8kbits/s speed=67.5x    frame=1390243 fps=4050 q=-1.0 size=26174208kB time=06:26:10.86 bitrate=9253.8kbits/s speed=67.5x    frame=1392471 fps=4051 q=-1.0 size=26209792kB time=06:26:47.99 bitrate=9251.6kbits/s speed=67.5x    frame=1395514 fps=4054 q=-1.0 size=26250240kB time=06:27:38.71 bitrate=9245.7kbits/s speed=67.6x    frame=1397371 fps=4053 q=-1.0 size=26289152kB time=06:28:09.66 bitrate=9247.1kbits/s speed=67.6x    frame=1399407 fps=4053 q=-1.0 size=26329344kB time=06:28:43.59 bitrate=9247.7kbits/s speed=67.6x    frame=1401357 fps=4053 q=-1.0 size=26369536kB time=06:29:16.09 bitrate=9248.9kbits/s speed=67.6x    frame=1403369 fps=4053 q=-1.0 size=26408192kB time=06:29:49.63 bitrate=9249.2kbits/s speed=67.6x    frame=1405605 fps=4054 q=-1.0 size=26447872kB time=06:30:26.89 bitrate=9248.4kbits/s speed=67.6x    frame=1407530 fps=4053 q=-1.0 size=26488064kB time=06:30:58.99 bitrate=9249.8kbits/s speed=67.6x    frame=1409432 fps=4053 q=-1.0 size=26526720kB time=06:31:30.69 bitrate=9250.8kbits/s speed=67.6x    frame=1412886 fps=4057 q=-1.0 size=26565632kB time=06:32:28.24 bitrate=9241.7kbits/s speed=67.6x    frame=1416164 fps=4061 q=-1.0 size=26601984kB time=06:33:22.88 bitrate=9232.9kbits/s speed=67.7x    frame=1419012 fps=4063 q=-1.0 size=26637312kB time=06:34:10.34 bitrate=9226.6kbits/s speed=67.7x    frame=1422918 fps=4068 q=-1.0 size=26674944kB time=06:35:15.46 bitrate=9214.3kbits/s speed=67.8x    frame=1425947 fps=4071 q=-1.0 size=26712064kB time=06:36:05.93 bitrate=9207.5kbits/s speed=67.9x    frame=1428756 fps=4073 q=-1.0 size=26745344kB time=06:36:52.76 bitrate=9200.9kbits/s speed=67.9x    frame=1432174 fps=4077 q=-1.0 size=26781952kB time=06:37:49.72 bitrate=9191.5kbits/s speed=  68x    frame=1435583 fps=4081 q=-1.0 size=26816512kB time=06:38:46.53 bitrate=9181.5kbits/s speed=  68x    frame=1439025 fps=4085 q=-1.0 size=26853376kB time=06:39:43.89 bitrate=9172.1kbits/s speed=68.1x    frame=1442435 fps=4089 q=-1.0 size=26889984kB time=06:40:40.73 bitrate=9162.9kbits/s speed=68.2x    frame=1445891 fps=4093 q=-1.0 size=26924544kB time=06:41:38.33 bitrate=9152.7kbits/s speed=68.2x    frame=1449258 fps=4097 q=-1.0 size=26962688kB time=06:42:34.44 bitrate=9144.4kbits/s speed=68.3x    frame=1451526 fps=4097 q=-1.0 size=26998784kB time=06:43:12.24 bitrate=9142.4kbits/s speed=68.3x    frame=1453709 fps=4098 q=-1.0 size=27035648kB time=06:43:48.63 bitrate=9141.1kbits/s speed=68.3x    frame=1455932 fps=4098 q=-1.0 size=27073536kB time=06:44:25.68 bitrate=9139.9kbits/s speed=68.3x    frame=1458068 fps=4099 q=-1.0 size=27107328kB time=06:45:01.28 bitrate=9137.9kbits/s speed=68.3x    frame=1460466 fps=4100 q=-1.0 size=27144960kB time=06:45:41.24 bitrate=9135.6kbits/s speed=68.3x    frame=1463322 fps=4102 q=-1.0 size=27182592kB time=06:46:28.84 bitrate=9130.4kbits/s speed=68.4x    frame=1465121 fps=4101 q=-1.0 size=27218432kB time=06:46:58.84 bitrate=9131.2kbits/s speed=68.4x    frame=1468431 fps=4105 q=-1.0 size=27255296kB time=06:47:54.00 bitrate=9123.0kbits/s speed=68.4x    frame=1470300 fps=4104 q=-1.0 size=27293696kB time=06:48:25.15 bitrate=9124.2kbits/s speed=68.4x    frame=1472107 fps=4103 q=-1.0 size=27331072kB time=06:48:55.27 bitrate=9125.5kbits/s speed=68.4x    frame=1473787 fps=4102 q=-1.0 size=27366400kB time=06:49:23.26 bitrate=9126.9kbits/s speed=68.4x    frame=1475540 fps=4102 q=-1.0 size=27403008kB time=06:49:52.48 bitrate=9128.2kbits/s speed=68.4x    frame=1477426 fps=4101 q=-1.0 size=27441920kB time=06:50:23.91 bitrate=9129.5kbits/s speed=68.4x    frame=1479361 fps=4101 q=-1.0 size=27482112kB time=06:50:56.17 bitrate=9130.9kbits/s speed=68.3x    frame=1481044 fps=4100 q=-1.0 size=27517440kB time=06:51:24.21 bitrate=9132.3kbits/s speed=68.3x    frame=1482927 fps=4099 q=-1.0 size=27556352kB time=06:51:55.60 bitrate=9133.6kbits/s speed=68.3x    frame=1484803 fps=4099 q=-1.0 size=27595264kB time=06:52:26.86 bitrate=9134.9kbits/s speed=68.3x    frame=1486527 fps=4098 q=-1.0 size=27631104kB time=06:52:55.59 bitrate=9136.2kbits/s speed=68.3x    frame=1488467 fps=4098 q=-1.0 size=27671552kB time=06:53:27.93 bitrate=9137.6kbits/s speed=68.3x    frame=1490168 fps=4097 q=-1.0 size=27706880kB time=06:53:56.29 bitrate=9138.8kbits/s speed=68.3x    frame=1491916 fps=4096 q=-1.0 size=27743232kB time=06:54:25.41 bitrate=9140.1kbits/s speed=68.3x    frame=1493738 fps=4095 q=-1.0 size=27781120kB time=06:54:55.78 bitrate=9141.4kbits/s speed=68.3x    frame=1495671 fps=4095 q=-1.0 size=27821312kB time=06:55:27.99 bitrate=9142.8kbits/s speed=68.2x    frame=1497499 fps=4094 q=-1.0 size=27858432kB time=06:55:58.46 bitrate=9143.8kbits/s speed=68.2x    frame=1499437 fps=4094 q=-1.0 size=27898880kB time=06:56:30.76 bitrate=9145.3kbits/s speed=68.2x    frame=1501364 fps=4094 q=-1.0 size=27939072kB time=06:57:02.88 bitrate=9146.7kbits/s speed=68.2x    frame=1503282 fps=4093 q=-1.0 size=27978752kB time=06:57:34.85 bitrate=9148.0kbits/s speed=68.2x    frame=1505191 fps=4093 q=-1.0 size=28018688kB time=06:58:06.66 bitrate=9149.4kbits/s speed=68.2x    frame=1507025 fps=4092 q=-1.0 size=28056576kB time=06:58:37.23 bitrate=9150.7kbits/s speed=68.2x    frame=1508942 fps=4092 q=-1.0 size=28096512kB time=06:59:09.18 bitrate=9152.1kbits/s speed=68.2x    frame=1510880 fps=4092 q=-1.0 size=28136960kB time=06:59:41.48 bitrate=9153.5kbits/s speed=68.2x    frame=1512699 fps=4091 q=-1.0 size=28174848kB time=07:00:11.79 bitrate=9154.8kbits/s speed=68.2x    frame=1514602 fps=4091 q=-1.0 size=28214272kB time=07:00:43.52 bitrate=9156.1kbits/s speed=68.2x    frame=1516540 fps=4090 q=-1.0 size=28254976kB time=07:01:15.81 bitrate=9157.6kbits/s speed=68.2x    frame=1518273 fps=4090 q=-1.0 size=28290560kB time=07:01:44.70 bitrate=9158.6kbits/s speed=68.2x    frame=1520201 fps=4089 q=-1.0 size=28330752kB time=07:02:16.83 bitrate=9160.0kbits/s speed=68.2x    frame=1521945 fps=4088 q=-1.0 size=28367104kB time=07:02:45.89 bitrate=9161.2kbits/s speed=68.1x    frame=1523757 fps=4088 q=-1.0 size=28404736kB time=07:03:16.09 bitrate=9162.5kbits/s speed=68.1x    frame=1525693 fps=4087 q=-1.0 size=28445184kB time=07:03:48.37 bitrate=9163.9kbits/s speed=68.1x    frame=1527473 fps=4087 q=-1.0 size=28482048kB time=07:04:18.03 bitrate=9165.1kbits/s speed=68.1x    frame=1529338 fps=4086 q=-1.0 size=28520704kB time=07:04:49.11 bitrate=9166.3kbits/s speed=68.1x    frame=1531252 fps=4086 q=-1.0 size=28560640kB time=07:05:21.02 bitrate=9167.7kbits/s speed=68.1x    frame=1533083 fps=4085 q=-1.0 size=28598784kB time=07:05:51.53 bitrate=9169.0kbits/s speed=68.1x    frame=1534838 fps=4085 q=-1.0 size=28633856kB time=07:06:20.78 bitrate=9169.7kbits/s speed=68.1x    frame=1536771 fps=4084 q=-1.0 size=28673280kB time=07:06:52.99 bitrate=9170.8kbits/s speed=68.1x    frame=1538507 fps=4083 q=-1.0 size=28709632kB time=07:07:21.93 bitrate=9172.1kbits/s speed=68.1x    frame=1540285 fps=4083 q=-1.0 size=28747008kB time=07:07:51.57 bitrate=9173.4kbits/s speed=  68x    frame=1542249 fps=4083 q=-1.0 size=28787456kB time=07:08:24.30 bitrate=9174.6kbits/s speed=  68x    frame=1544241 fps=4082 q=-1.0 size=28828672kB time=07:08:57.49 bitrate=9175.9kbits/s speed=  68x    frame=1546216 fps=4082 q=-1.0 size=28869888kB time=07:09:30.41 bitrate=9177.3kbits/s speed=  68x    frame=1548065 fps=4082 q=-1.0 size=28908544kB time=07:10:01.24 bitrate=9178.6kbits/s speed=  68x    frame=1550094 fps=4082 q=-1.0 size=28950784kB time=07:10:35.04 bitrate=9180.0kbits/s speed=  68x    frame=1552156 fps=4082 q=-1.0 size=28993536kB time=07:11:09.42 bitrate=9181.3kbits/s speed=  68x    frame=1553915 fps=4081 q=-1.0 size=29030144kB time=07:11:38.73 bitrate=9182.5kbits/s speed=  68x    frame=1555942 fps=4081 q=-1.0 size=29072128kB time=07:12:12.52 bitrate=9183.8kbits/s speed=  68x    frame=1557884 fps=4081 q=-1.0 size=29112576kB time=07:12:44.88 bitrate=9185.1kbits/s speed=  68x    frame=1559702 fps=4080 q=-1.0 size=29150464kB time=07:13:15.18 bitrate=9186.3kbits/s speed=  68x    frame=1561582 fps=4080 q=-1.0 size=29189632kB time=07:13:46.51 bitrate=9187.6kbits/s speed=  68x    frame=1563575 fps=4080 q=-1.0 size=29231104kB time=07:14:19.73 bitrate=9188.9kbits/s speed=  68x    frame=1565398 fps=4079 q=-1.0 size=29268736kB time=07:14:50.11 bitrate=9190.1kbits/s speed=  68x    frame=1567362 fps=4079 q=-1.0 size=29309696kB time=07:15:22.84 bitrate=9191.4kbits/s speed=  68x    frame=1569293 fps=4079 q=-1.0 size=29349888kB time=07:15:55.03 bitrate=9192.7kbits/s speed=  68x    frame=1571334 fps=4079 q=-1.0 size=29392384kB time=07:16:29.06 bitrate=9194.0kbits/s speed=  68x    frame=1573478 fps=4079 q=-1.0 size=29434112kB time=07:17:04.79 bitrate=9194.5kbits/s speed=  68x    frame=1575425 fps=4079 q=-1.0 size=29474816kB time=07:17:37.23 bitrate=9195.9kbits/s speed=  68x    frame=1577330 fps=4078 q=-1.0 size=29514496kB time=07:18:08.98 bitrate=9197.1kbits/s speed=  68x    frame=1579267 fps=4078 q=-1.0 size=29554688kB time=07:18:41.26 bitrate=9198.3kbits/s speed=  68x    frame=1581106 fps=4077 q=-1.0 size=29593088kB time=07:19:11.91 bitrate=9199.6kbits/s speed=  68x    frame=1583211 fps=4078 q=-1.0 size=29635072kB time=07:19:46.99 bitrate=9200.4kbits/s speed=  68x    frame=1585087 fps=4077 q=-1.0 size=29674240kB time=07:20:18.26 bitrate=9201.6kbits/s speed=  68x    frame=1586988 fps=4077 q=-1.0 size=29713664kB time=07:20:49.94 bitrate=9202.8kbits/s speed=67.9x    frame=1589032 fps=4077 q=-1.0 size=29755392kB time=07:21:24.01 bitrate=9203.9kbits/s speed=67.9x    frame=1591044 fps=4077 q=-1.0 size=29797632kB time=07:21:57.54 bitrate=9205.3kbits/s speed=67.9x    frame=1593048 fps=4077 q=-1.0 size=29839360kB time=07:22:30.94 bitrate=9206.6kbits/s speed=67.9x    frame=1595035 fps=4077 q=-1.0 size=29880576kB time=07:23:04.06 bitrate=9207.8kbits/s speed=67.9x    frame=1596873 fps=4076 q=-1.0 size=29918720kB time=07:23:34.70 bitrate=9209.0kbits/s speed=67.9x    frame=1598868 fps=4076 q=-1.0 size=29960448kB time=07:24:07.94 bitrate=9210.3kbits/s speed=67.9x    frame=1600717 fps=4075 q=-1.0 size=29998592kB time=07:24:38.76 bitrate=9211.4kbits/s speed=67.9x    frame=1602615 fps=4075 q=-1.0 size=30038272kB time=07:25:10.39 bitrate=9212.6kbits/s speed=67.9x    frame=1604526 fps=4075 q=-1.0 size=30077952kB time=07:25:42.24 bitrate=9213.8kbits/s speed=67.9x    frame=1606477 fps=4074 q=-1.0 size=30118400kB time=07:26:14.76 bitrate=9215.0kbits/s speed=67.9x    frame=1608427 fps=4074 q=-1.0 size=30159104kB time=07:26:47.27 bitrate=9216.3kbits/s speed=67.9x    frame=1610422 fps=4074 q=-1.0 size=30200320kB time=07:27:20.51 bitrate=9217.4kbits/s speed=67.9x    frame=1612407 fps=4074 q=-1.0 size=30241792kB time=07:27:53.59 bitrate=9218.7kbits/s speed=67.9x    frame=1614428 fps=4074 q=-1.0 size=30283776kB time=07:28:27.28 bitrate=9220.0kbits/s speed=67.9x    frame=1616349 fps=4074 q=-1.0 size=30323712kB time=07:28:59.31 bitrate=9221.2kbits/s speed=67.9x    frame=1618244 fps=4073 q=-1.0 size=30363136kB time=07:29:30.88 bitrate=9222.3kbits/s speed=67.9x    frame=1620307 fps=4073 q=-1.0 size=30404608kB time=07:30:05.27 bitrate=9223.2kbits/s speed=67.9x    frame=1622078 fps=4074 q=-1.0 Lsize=30434702kB time=07:30:34.78 bitrate=9222.2kbits/s speed=67.9x    
video:29731782kB audio:648609kB subtitle:0kB other streams:0kB global headers:0kB muxing overhead: 0.178769%
